  0
SECTION
  2
HEADER
  9
$ACADVER
  1
AC1009
  9
$FILLMODE
 70
1
  9
$EXTMIN
 10
-32.4385
 20
-21.2000
 30
0.0000
  9
$EXTMAX
 10
32.4385
 20
21.1000
 30
0.0000
  0
ENDSEC
  0
SECTION
  2
TABLES
  0
TABLE
  2
LTYPE
 70
1
  0
LTYPE
  2
CONTINUOUS
 70
64
  3
Solid line
 72
65
 73
0
 40
0
  0
ENDTAB
  0
TABLE
  2
LAYER
 70
255
  0
LAYER
  2
20
 70
64
 62
7
  6
CONTINUOUS
  0
LAYER
  2
32
 70
64
 62
253
  6
CONTINUOUS
  0
ENDTAB
  0
ENDSEC
  0
SECTION
  2
BLOCKS
  0
BLOCK
  8
0
  2
RECT
 70
64
 10
0.0000
 20
0.0000
 30
0.0000
  3
RECT
  0
SOLID
  8
0
 10
-0.5000
 20
-0.5000
 30
0.0000
 11
0.5000
 21
-0.5000
 31
0.0000
 12
-0.5000
 22
0.5000
 32
0.0000
 13
0.5000
 23
0.5000
 33
0.0000
  0
ENDBLK
  8
0
  0
BLOCK
  8
0
  2
PIE
 70
64
 10
0.0000
 20
0.0000
 30
0.0000
  3
PIE
  0
POLYLINE
  8
0
 66
1
 10
0.0000
 20
0.0000
 30
0.0000
 40
0.5000
 41
0.5000
 70
0
  0
VERTEX
  8
0
 10
0.0000
 20
-0.2500
 30
0.0000
 42
1.0000
  0
VERTEX
  8
0
 10
0.0000
 20
0.2500
 30
0.0000
 42
1.0000
  0
VERTEX
  8
0
 10
0.0000
 20
-0.2500
 30
0.0000
  0
SEQEND
  8
0
  0
ENDBLK
  8
0
  0
BLOCK
  8
0
  2
OCTAGONP
 70
64
 10
0.0000
 20
0.0000
 30
0.0000
  3
OCTAGONP
  0
POLYLINE
  8
0
 66
1
 10
0.0000
 20
0.0000
 30
0.0000
 40
0.5000
 41
0.5000
 70
0
  0
VERTEX
  8
0
 10
-0.2500
 20
-0.1036
 30
0.0000
  0
VERTEX
  8
0
 10
-0.2500
 20
0.1036
 30
0.0000
  0
VERTEX
  8
0
 10
-0.1036
 20
0.2500
 30
0.0000
  0
VERTEX
  8
0
 10
0.1036
 20
0.2500
 30
0.0000
  0
VERTEX
  8
0
 10
0.2500
 20
0.1036
 30
0.0000
  0
VERTEX
  8
0
 10
0.2500
 20
-0.1036
 30
0.0000
  0
VERTEX
  8
0
 10
0.1036
 20
-0.2500
 30
0.0000
  0
VERTEX
  8
0
 10
-0.1036
 20
-0.2500
 30
0.0000
  0
VERTEX
  8
0
 10
-0.2500
 20
-0.1036
 30
0.0000
  0
VERTEX
  8
0
 10
-0.2500
 20
0.1036
 30
0.0000
  0
SEQEND
  8
0
  0
ENDBLK
  8
0
  0
BLOCK
  8
0
  2
SQUAREP
 70
64
 10
0.0000
 20
0.0000
 30
0.0000
  3
SQUAREP
  0
SOLID
  8
0
 10
-0.5000
 20
-0.5000
 30
0.0000
 11
0.5000
 21
-0.5000
 31
0.0000
 12
-0.5000
 22
0.5000
 32
0.0000
 13
0.5000
 23
0.5000
 33
0.0000
  0
ENDBLK
  8
0
  0
BLOCK
  8
0
  2
ROUNDP
 70
64
 10
0.0000
 20
0.0000
 30
0.0000
  3
ROUNDP
  0
POLYLINE
  8
0
 66
1
 10
0.0000
 20
0.0000
 30
0.0000
 40
0.5000
 41
0.5000
 70
0
  0
VERTEX
  8
0
 10
0.0000
 20
-0.2500
 30
0.0000
 42
1.0000
  0
VERTEX
  8
0
 10
0.0000
 20
0.2500
 30
0.0000
 42
1.0000
  0
VERTEX
  8
0
 10
0.0000
 20
-0.2500
 30
0.0000
  0
SEQEND
  8
0
  0
ENDBLK
  8
0
  0
BLOCK
  8
0
  2
ANNULUSP
 70
64
 10
0.0000
 20
0.0000
 30
0.0000
  3
ANNULUSP
  0
POLYLINE
  8
0
 66
1
 10
0.0000
 20
0.0000
 30
0.0000
 40
0.5000
 41
0.5000
 70
0
  0
VERTEX
  8
0
 10
0.0000
 20
-0.2500
 30
0.0000
 42
1.0000
  0
VERTEX
  8
0
 10
0.0000
 20
0.2500
 30
0.0000
 42
1.0000
  0
VERTEX
  8
0
 10
0.0000
 20
-0.2500
 30
0.0000
  0
SEQEND
  8
0
  0
ENDBLK
  8
0
  0
BLOCK
  8
0
  2
THERMALP
 70
64
 10
0.0000
 20
0.0000
 30
0.0000
  3
THERMALP
  0
POLYLINE
  8
0
 66
1
 10
0.0000
 20
0.0000
 30
0.0000
 40
0.1000
 41
0.1000
 70
0
  0
VERTEX
  8
0
 10
-0.2379
 20
0.4500
 30
0.0000
  0
VERTEX
  8
0
 10
0.2379
 20
0.4500
 30
0.0000
  0
SEQEND
  8
0
  0
POLYLINE
  8
0
 66
1
 10
0.0000
 20
0.0000
 30
0.0000
 40
0.0500
 41
0.0500
 70
0
  0
VERTEX
  8
0
 10
0.2379
 20
0.4250
 30
0.0000
 42
1.0000
  0
VERTEX
  8
0
 10
0.2379
 20
0.4750
 30
0.0000
  0
SEQEND
  8
0
  0
POLYLINE
  8
0
 66
1
 10
0.0000
 20
0.0000
 30
0.0000
 40
0.0500
 41
0.0500
 70
0
  0
VERTEX
  8
0
 10
-0.2379
 20
0.4750
 30
0.0000
 42
1.0000
  0
VERTEX
  8
0
 10
-0.2379
 20
0.4250
 30
0.0000
  0
SEQEND
  8
0
  0
POLYLINE
  8
0
 66
1
 10
0.0000
 20
0.0000
 30
0.0000
 40
0.1000
 41
0.1000
 70
0
  0
VERTEX
  8
0
 10
0.4500
 20
0.2379
 30
0.0000
  0
VERTEX
  8
0
 10
0.4500
 20
-0.2379
 30
0.0000
  0
SEQEND
  8
0
  0
POLYLINE
  8
0
 66
1
 10
0.0000
 20
0.0000
 30
0.0000
 40
0.0500
 41
0.0500
 70
0
  0
VERTEX
  8
0
 10
0.4250
 20
-0.2379
 30
0.0000
 42
1.0000
  0
VERTEX
  8
0
 10
0.4750
 20
-0.2379
 30
0.0000
  0
SEQEND
  8
0
  0
POLYLINE
  8
0
 66
1
 10
0.0000
 20
0.0000
 30
0.0000
 40
0.0500
 41
0.0500
 70
0
  0
VERTEX
  8
0
 10
0.4750
 20
0.2379
 30
0.0000
 42
1.0000
  0
VERTEX
  8
0
 10
0.4250
 20
0.2379
 30
0.0000
  0
SEQEND
  8
0
  0
POLYLINE
  8
0
 66
1
 10
0.0000
 20
0.0000
 30
0.0000
 40
0.1000
 41
0.1000
 70
0
  0
VERTEX
  8
0
 10
0.2379
 20
-0.4500
 30
0.0000
  0
VERTEX
  8
0
 10
-0.2379
 20
-0.4500
 30
0.0000
  0
SEQEND
  8
0
  0
POLYLINE
  8
0
 66
1
 10
0.0000
 20
0.0000
 30
0.0000
 40
0.0500
 41
0.0500
 70
0
  0
VERTEX
  8
0
 10
-0.2379
 20
-0.4250
 30
0.0000
 42
1.0000
  0
VERTEX
  8
0
 10
-0.2379
 20
-0.4750
 30
0.0000
  0
SEQEND
  8
0
  0
POLYLINE
  8
0
 66
1
 10
0.0000
 20
0.0000
 30
0.0000
 40
0.0500
 41
0.0500
 70
0
  0
VERTEX
  8
0
 10
0.2379
 20
-0.4750
 30
0.0000
 42
1.0000
  0
VERTEX
  8
0
 10
0.2379
 20
-0.4250
 30
0.0000
  0
SEQEND
  8
0
  0
POLYLINE
  8
0
 66
1
 10
0.0000
 20
0.0000
 30
0.0000
 40
0.1000
 41
0.1000
 70
0
  0
VERTEX
  8
0
 10
-0.4500
 20
-0.2379
 30
0.0000
  0
VERTEX
  8
0
 10
-0.4500
 20
0.2379
 30
0.0000
  0
SEQEND
  8
0
  0
POLYLINE
  8
0
 66
1
 10
0.0000
 20
0.0000
 30
0.0000
 40
0.0500
 41
0.0500
 70
0
  0
VERTEX
  8
0
 10
-0.4250
 20
0.2379
 30
0.0000
 42
1.0000
  0
VERTEX
  8
0
 10
-0.4750
 20
0.2379
 30
0.0000
  0
SEQEND
  8
0
  0
POLYLINE
  8
0
 66
1
 10
0.0000
 20
0.0000
 30
0.0000
 40
0.0500
 41
0.0500
 70
0
  0
VERTEX
  8
0
 10
-0.4750
 20
-0.2379
 30
0.0000
 42
1.0000
  0
VERTEX
  8
0
 10
-0.4250
 20
-0.2379
 30
0.0000
  0
SEQEND
  8
0
  0
ENDBLK
  8
0
  0
BLOCK
  8
0
  2
OCTAGONV
 70
64
 10
0.0000
 20
0.0000
 30
0.0000
  3
OCTAGONV
  0
POLYLINE
  8
0
 66
1
 10
0.0000
 20
0.0000
 30
0.0000
 40
0.5000
 41
0.5000
 70
0
  0
VERTEX
  8
0
 10
-0.2500
 20
-0.1036
 30
0.0000
  0
VERTEX
  8
0
 10
-0.2500
 20
0.1036
 30
0.0000
  0
VERTEX
  8
0
 10
-0.1036
 20
0.2500
 30
0.0000
  0
VERTEX
  8
0
 10
0.1036
 20
0.2500
 30
0.0000
  0
VERTEX
  8
0
 10
0.2500
 20
0.1036
 30
0.0000
  0
VERTEX
  8
0
 10
0.2500
 20
-0.1036
 30
0.0000
  0
VERTEX
  8
0
 10
0.1036
 20
-0.2500
 30
0.0000
  0
VERTEX
  8
0
 10
-0.1036
 20
-0.2500
 30
0.0000
  0
VERTEX
  8
0
 10
-0.2500
 20
-0.1036
 30
0.0000
  0
VERTEX
  8
0
 10
-0.2500
 20
0.1036
 30
0.0000
  0
SEQEND
  8
0
  0
ENDBLK
  8
0
  0
BLOCK
  8
0
  2
SQUAREV
 70
64
 10
0.0000
 20
0.0000
 30
0.0000
  3
SQUAREV
  0
SOLID
  8
0
 10
-0.5000
 20
-0.5000
 30
0.0000
 11
0.5000
 21
-0.5000
 31
0.0000
 12
-0.5000
 22
0.5000
 32
0.0000
 13
0.5000
 23
0.5000
 33
0.0000
  0
ENDBLK
  8
0
  0
BLOCK
  8
0
  2
ROUNDV
 70
64
 10
0.0000
 20
0.0000
 30
0.0000
  3
ROUNDV
  0
POLYLINE
  8
0
 66
1
 10
0.0000
 20
0.0000
 30
0.0000
 40
0.5000
 41
0.5000
 70
0
  0
VERTEX
  8
0
 10
0.0000
 20
-0.2500
 30
0.0000
 42
1.0000
  0
VERTEX
  8
0
 10
0.0000
 20
0.2500
 30
0.0000
 42
1.0000
  0
VERTEX
  8
0
 10
0.0000
 20
-0.2500
 30
0.0000
  0
SEQEND
  8
0
  0
ENDBLK
  8
0
  0
BLOCK
  8
0
  2
ANNULUSV
 70
64
 10
0.0000
 20
0.0000
 30
0.0000
  3
ANNULUSV
  0
POLYLINE
  8
0
 66
1
 10
0.0000
 20
0.0000
 30
0.0000
 40
0.5000
 41
0.5000
 70
0
  0
VERTEX
  8
0
 10
0.0000
 20
-0.2500
 30
0.0000
 42
1.0000
  0
VERTEX
  8
0
 10
0.0000
 20
0.2500
 30
0.0000
 42
1.0000
  0
VERTEX
  8
0
 10
0.0000
 20
-0.2500
 30
0.0000
  0
SEQEND
  8
0
  0
ENDBLK
  8
0
  0
BLOCK
  8
0
  2
THERMALV
 70
64
 10
0.0000
 20
0.0000
 30
0.0000
  3
THERMALV
  0
POLYLINE
  8
0
 66
1
 10
0.0000
 20
0.0000
 30
0.0000
 40
0.1000
 41
0.1000
 70
0
  0
VERTEX
  8
0
 10
-0.2379
 20
0.4500
 30
0.0000
  0
VERTEX
  8
0
 10
0.2379
 20
0.4500
 30
0.0000
  0
SEQEND
  8
0
  0
POLYLINE
  8
0
 66
1
 10
0.0000
 20
0.0000
 30
0.0000
 40
0.0500
 41
0.0500
 70
0
  0
VERTEX
  8
0
 10
0.2379
 20
0.4250
 30
0.0000
 42
1.0000
  0
VERTEX
  8
0
 10
0.2379
 20
0.4750
 30
0.0000
  0
SEQEND
  8
0
  0
POLYLINE
  8
0
 66
1
 10
0.0000
 20
0.0000
 30
0.0000
 40
0.0500
 41
0.0500
 70
0
  0
VERTEX
  8
0
 10
-0.2379
 20
0.4750
 30
0.0000
 42
1.0000
  0
VERTEX
  8
0
 10
-0.2379
 20
0.4250
 30
0.0000
  0
SEQEND
  8
0
  0
POLYLINE
  8
0
 66
1
 10
0.0000
 20
0.0000
 30
0.0000
 40
0.1000
 41
0.1000
 70
0
  0
VERTEX
  8
0
 10
0.4500
 20
0.2379
 30
0.0000
  0
VERTEX
  8
0
 10
0.4500
 20
-0.2379
 30
0.0000
  0
SEQEND
  8
0
  0
POLYLINE
  8
0
 66
1
 10
0.0000
 20
0.0000
 30
0.0000
 40
0.0500
 41
0.0500
 70
0
  0
VERTEX
  8
0
 10
0.4250
 20
-0.2379
 30
0.0000
 42
1.0000
  0
VERTEX
  8
0
 10
0.4750
 20
-0.2379
 30
0.0000
  0
SEQEND
  8
0
  0
POLYLINE
  8
0
 66
1
 10
0.0000
 20
0.0000
 30
0.0000
 40
0.0500
 41
0.0500
 70
0
  0
VERTEX
  8
0
 10
0.4750
 20
0.2379
 30
0.0000
 42
1.0000
  0
VERTEX
  8
0
 10
0.4250
 20
0.2379
 30
0.0000
  0
SEQEND
  8
0
  0
POLYLINE
  8
0
 66
1
 10
0.0000
 20
0.0000
 30
0.0000
 40
0.1000
 41
0.1000
 70
0
  0
VERTEX
  8
0
 10
0.2379
 20
-0.4500
 30
0.0000
  0
VERTEX
  8
0
 10
-0.2379
 20
-0.4500
 30
0.0000
  0
SEQEND
  8
0
  0
POLYLINE
  8
0
 66
1
 10
0.0000
 20
0.0000
 30
0.0000
 40
0.0500
 41
0.0500
 70
0
  0
VERTEX
  8
0
 10
-0.2379
 20
-0.4250
 30
0.0000
 42
1.0000
  0
VERTEX
  8
0
 10
-0.2379
 20
-0.4750
 30
0.0000
  0
SEQEND
  8
0
  0
POLYLINE
  8
0
 66
1
 10
0.0000
 20
0.0000
 30
0.0000
 40
0.0500
 41
0.0500
 70
0
  0
VERTEX
  8
0
 10
0.2379
 20
-0.4750
 30
0.0000
 42
1.0000
  0
VERTEX
  8
0
 10
0.2379
 20
-0.4250
 30
0.0000
  0
SEQEND
  8
0
  0
POLYLINE
  8
0
 66
1
 10
0.0000
 20
0.0000
 30
0.0000
 40
0.1000
 41
0.1000
 70
0
  0
VERTEX
  8
0
 10
-0.4500
 20
-0.2379
 30
0.0000
  0
VERTEX
  8
0
 10
-0.4500
 20
0.2379
 30
0.0000
  0
SEQEND
  8
0
  0
POLYLINE
  8
0
 66
1
 10
0.0000
 20
0.0000
 30
0.0000
 40
0.0500
 41
0.0500
 70
0
  0
VERTEX
  8
0
 10
-0.4250
 20
0.2379
 30
0.0000
 42
1.0000
  0
VERTEX
  8
0
 10
-0.4750
 20
0.2379
 30
0.0000
  0
SEQEND
  8
0
  0
POLYLINE
  8
0
 66
1
 10
0.0000
 20
0.0000
 30
0.0000
 40
0.0500
 41
0.0500
 70
0
  0
VERTEX
  8
0
 10
-0.4750
 20
-0.2379
 30
0.0000
 42
1.0000
  0
VERTEX
  8
0
 10
-0.4250
 20
-0.2379
 30
0.0000
  0
SEQEND
  8
0
  0
ENDBLK
  8
0
  0
BLOCK
  8
0
  2
RECT304800X304800R100
 70
64
 10
0.0000
 20
0.0000
 30
0.0000
  3
RECT304800X304800R100
  0
POLYLINE
  8
0
 66
1
 10
0.0000
 20
0.0000
 30
0.0000
 40
0.9525
 41
0.9525
 70
1
  0
VERTEX
  8
0
 10
0.4763
 20
0.0000
 30
0.0000
  0
VERTEX
  8
0
 10
0.4763
 20
0.0000
 30
0.0000
 42
0.4142
  0
VERTEX
  8
0
 10
0.0000
 20
0.4763
 30
0.0000
  0
VERTEX
  8
0
 10
0.0000
 20
0.4763
 30
0.0000
 42
0.4142
  0
VERTEX
  8
0
 10
-0.4763
 20
0.0000
 30
0.0000
  0
VERTEX
  8
0
 10
-0.4763
 20
0.0000
 30
0.0000
 42
0.4142
  0
VERTEX
  8
0
 10
0.0000
 20
-0.4763
 30
0.0000
  0
VERTEX
  8
0
 10
0.0000
 20
-0.4763
 30
0.0000
 42
0.4142
  0
SEQEND
  8
0
  0
SOLID
  8
0
 10
-0.0254
 20
-0.0254
 30
0.0000
 11
0.0254
 21
-0.0254
 31
0.0000
 12
-0.0254
 22
0.0254
 32
0.0000
 13
0.0254
 23
0.0254
 33
0.0000
  0
ENDBLK
  8
0
  0
BLOCK
  8
0
  2
RECT0X0R100
 70
64
 10
0.0000
 20
0.0000
 30
0.0000
  3
RECT0X0R100
  0
POLYLINE
  8
0
 66
1
 10
0.0000
 20
0.0000
 30
0.0000
 40
0.0000
 41
0.0000
 70
1
  0
VERTEX
  8
0
 10
0.0000
 20
0.0000
 30
0.0000
  0
VERTEX
  8
0
 10
0.0000
 20
0.0000
 30
0.0000
 42
0.4142
  0
VERTEX
  8
0
 10
0.0000
 20
0.0000
 30
0.0000
  0
VERTEX
  8
0
 10
0.0000
 20
0.0000
 30
0.0000
 42
0.4142
  0
VERTEX
  8
0
 10
0.0000
 20
0.0000
 30
0.0000
  0
VERTEX
  8
0
 10
0.0000
 20
0.0000
 30
0.0000
 42
0.4142
  0
VERTEX
  8
0
 10
0.0000
 20
0.0000
 30
0.0000
  0
VERTEX
  8
0
 10
0.0000
 20
0.0000
 30
0.0000
 42
0.4142
  0
SEQEND
  8
0
  0
SOLID
  8
0
 10
0.0000
 20
0.0000
 30
0.0000
 11
0.0000
 21
0.0000
 31
0.0000
 12
0.0000
 22
0.0000
 32
0.0000
 13
0.0000
 23
0.0000
 33
0.0000
  0
ENDBLK
  8
0
  0
ENDSEC
  0
SECTION
  2
ENTITIES
  0
ARC
  8
20
 10
17.6127
 20
18.4550
 30
0.0000
 40
2.0000
 50
2.4226
 51
90.0000
  0
LINE
  8
20
 10
-17.6127
 20
20.4550
 30
0.0000
 11
17.6127
 21
20.4550
 31
0.0000
  0
ARC
  8
20
 10
-17.6127
 20
18.4550
 30
0.0000
 40
2.0000
 50
90.0000
 51
177.5774
  0
ARC
  8
20
 10
-26.2400
 20
18.8200
 30
0.0000
 40
6.6350
 50
272.4226
 51
357.5774
  0
ARC
  8
20
 10
-25.8750
 20
10.1927
 30
0.0000
 40
2.0000
 50
92.4226
 51
180.0000
  0
LINE
  8
20
 10
-27.8750
 20
-10.1927
 30
0.0000
 11
-27.8750
 21
10.1927
 31
0.0000
  0
ARC
  8
20
 10
-25.8750
 20
-10.1927
 30
0.0000
 40
2.0000
 50
180.0000
 51
267.5774
  0
ARC
  8
20
 10
-26.2400
 20
-18.8200
 30
0.0000
 40
6.6350
 50
2.4226
 51
87.5774
  0
ARC
  8
20
 10
-17.6127
 20
-18.4550
 30
0.0000
 40
2.0000
 50
182.4226
 51
270.0000
  0
LINE
  8
20
 10
17.6127
 20
-20.4550
 30
0.0000
 11
-17.6127
 21
-20.4550
 31
0.0000
  0
ARC
  8
20
 10
17.6127
 20
-18.4550
 30
0.0000
 40
2.0000
 50
270.0000
 51
357.5774
  0
ARC
  8
20
 10
26.2400
 20
-18.8200
 30
0.0000
 40
6.6350
 50
92.4226
 51
177.5774
  0
ARC
  8
20
 10
25.8750
 20
-10.1927
 30
0.0000
 40
2.0000
 50
272.4226
 51
0.0000
  0
LINE
  8
20
 10
27.8750
 20
10.1927
 30
0.0000
 11
27.8750
 21
-10.1927
 31
0.0000
  0
ARC
  8
20
 10
25.8750
 20
10.1927
 30
0.0000
 40
2.0000
 50
360.0000
 51
87.5774
  0
ARC
  8
20
 10
26.2400
 20
18.8200
 30
0.0000
 40
6.6350
 50
182.4226
 51
267.5774
  0
CIRCLE
  8
20
 10
-16.5000
 20
18.0000
 30
0.0000
 40
1.9500
  0
CIRCLE
  8
20
 10
-16.5000
 20
-18.0000
 30
0.0000
 40
1.9500
  0
CIRCLE
  8
20
 10
16.5000
 20
18.0000
 30
0.0000
 40
1.9500
  0
CIRCLE
  8
20
 10
16.5000
 20
-18.0000
 30
0.0000
 40
1.9500
  0
INSERT
  8
32
  2
PIE
 10
7.5000
 20
15.0000
 30
0.0000
 41
1.9050
 42
1.9050
 43
1.0000
 50
0.0000
  0
INSERT
  8
32
  2
PIE
 10
7.5000
 20
12.4600
 30
0.0000
 41
1.9050
 42
1.9050
 43
1.0000
 50
0.0000
  0
INSERT
  8
32
  2
PIE
 10
4.9600
 20
15.0000
 30
0.0000
 41
1.9050
 42
1.9050
 43
1.0000
 50
0.0000
  0
INSERT
  8
32
  2
PIE
 10
4.9600
 20
12.4600
 30
0.0000
 41
1.9050
 42
1.9050
 43
1.0000
 50
0.0000
  0
INSERT
  8
32
  2
PIE
 10
2.4200
 20
15.0000
 30
0.0000
 41
1.9050
 42
1.9050
 43
1.0000
 50
0.0000
  0
INSERT
  8
32
  2
PIE
 10
2.4200
 20
12.4600
 30
0.0000
 41
1.9050
 42
1.9050
 43
1.0000
 50
0.0000
  0
INSERT
  8
32
  2
PIE
 10
-0.1200
 20
15.0000
 30
0.0000
 41
1.9050
 42
1.9050
 43
1.0000
 50
0.0000
  0
INSERT
  8
32
  2
PIE
 10
-0.1200
 20
12.4600
 30
0.0000
 41
1.9050
 42
1.9050
 43
1.0000
 50
0.0000
  0
INSERT
  8
32
  2
RECT
 10
9.9800
 20
13.0600
 30
0.0000
 41
0.5000
 42
0.6000
 43
1.0000
 50
270.0000
  0
INSERT
  8
32
  2
RECT
 10
9.9800
 20
12.0600
 30
0.0000
 41
0.5000
 42
0.6000
 43
1.0000
 50
270.0000
  0
INSERT
  8
32
  2
RECT
 10
6.7900
 20
9.8400
 30
0.0000
 41
0.5000
 42
0.6000
 43
1.0000
 50
180.0000
  0
INSERT
  8
32
  2
RECT
 10
5.7900
 20
9.8400
 30
0.0000
 41
0.5000
 42
0.6000
 43
1.0000
 50
180.0000
  0
CIRCLE
  8
20
 10
24.4350
 20
5.7150
 30
0.0000
 40
1.6250
  0
CIRCLE
  8
20
 10
24.4350
 20
-5.7150
 30
0.0000
 40
1.6250
  0
INSERT
  8
32
  2
RECT
 10
14.2100
 20
4.4500
 30
0.0000
 41
6.3500
 42
0.7600
 43
1.0000
 50
180.0000
  0
INSERT
  8
32
  2
RECT
 10
14.2100
 20
3.1800
 30
0.0000
 41
6.3500
 42
0.7600
 43
1.0000
 50
180.0000
  0
INSERT
  8
32
  2
RECT
 10
14.2100
 20
1.9100
 30
0.0000
 41
6.3500
 42
0.7600
 43
1.0000
 50
180.0000
  0
INSERT
  8
32
  2
RECT
 10
14.2100
 20
0.6400
 30
0.0000
 41
6.3500
 42
0.7600
 43
1.0000
 50
180.0000
  0
INSERT
  8
32
  2
RECT
 10
14.2100
 20
-0.6300
 30
0.0000
 41
6.3500
 42
0.7600
 43
1.0000
 50
180.0000
  0
INSERT
  8
32
  2
RECT
 10
14.2100
 20
-1.9050
 30
0.0000
 41
6.3500
 42
0.7600
 43
1.0000
 50
180.0000
  0
INSERT
  8
32
  2
RECT
 10
14.2100
 20
-3.1750
 30
0.0000
 41
6.3500
 42
0.7600
 43
1.0000
 50
180.0000
  0
INSERT
  8
32
  2
RECT
 10
14.2100
 20
-4.4450
 30
0.0000
 41
6.3500
 42
0.7600
 43
1.0000
 50
180.0000
  0
CIRCLE
  8
20
 10
-24.4350
 20
-5.7150
 30
0.0000
 40
1.6250
  0
CIRCLE
  8
20
 10
-24.4350
 20
5.7150
 30
0.0000
 40
1.6250
  0
INSERT
  8
32
  2
RECT
 10
-14.2100
 20
-4.4500
 30
0.0000
 41
6.3500
 42
0.7600
 43
1.0000
 50
0.0000
  0
INSERT
  8
32
  2
RECT
 10
-14.2100
 20
-3.1800
 30
0.0000
 41
6.3500
 42
0.7600
 43
1.0000
 50
0.0000
  0
INSERT
  8
32
  2
RECT
 10
-14.2100
 20
-1.9100
 30
0.0000
 41
6.3500
 42
0.7600
 43
1.0000
 50
0.0000
  0
INSERT
  8
32
  2
RECT
 10
-14.2100
 20
-0.6400
 30
0.0000
 41
6.3500
 42
0.7600
 43
1.0000
 50
0.0000
  0
INSERT
  8
32
  2
RECT
 10
-14.2100
 20
0.6300
 30
0.0000
 41
6.3500
 42
0.7600
 43
1.0000
 50
0.0000
  0
INSERT
  8
32
  2
RECT
 10
-14.2100
 20
1.9050
 30
0.0000
 41
6.3500
 42
0.7600
 43
1.0000
 50
0.0000
  0
INSERT
  8
32
  2
RECT
 10
-14.2100
 20
3.1750
 30
0.0000
 41
6.3500
 42
0.7600
 43
1.0000
 50
0.0000
  0
INSERT
  8
32
  2
RECT
 10
-14.2100
 20
4.4450
 30
0.0000
 41
6.3500
 42
0.7600
 43
1.0000
 50
0.0000
  0
INSERT
  8
32
  2
RECT
 10
-4.3250
 20
12.1500
 30
0.0000
 41
0.6500
 42
0.9000
 43
1.0000
 50
180.0000
  0
INSERT
  8
32
  2
RECT
 10
-5.2000
 20
12.1500
 30
0.0000
 41
0.5000
 42
0.9000
 43
1.0000
 50
180.0000
  0
INSERT
  8
32
  2
RECT
 10
-6.0000
 20
12.1500
 30
0.0000
 41
0.5000
 42
0.9000
 43
1.0000
 50
180.0000
  0
INSERT
  8
32
  2
RECT
 10
-6.8750
 20
12.1500
 30
0.0000
 41
0.6500
 42
0.9000
 43
1.0000
 50
180.0000
  0
INSERT
  8
32
  2
RECT
 10
-6.8750
 20
13.8500
 30
0.0000
 41
0.6500
 42
0.9000
 43
1.0000
 50
180.0000
  0
INSERT
  8
32
  2
RECT
 10
-6.0000
 20
13.8500
 30
0.0000
 41
0.5000
 42
0.9000
 43
1.0000
 50
180.0000
  0
INSERT
  8
32
  2
RECT
 10
-5.2000
 20
13.8500
 30
0.0000
 41
0.5000
 42
0.9000
 43
1.0000
 50
180.0000
  0
INSERT
  8
32
  2
RECT
 10
-4.3250
 20
13.8500
 30
0.0000
 41
0.6500
 42
0.9000
 43
1.0000
 50
180.0000
  0
INSERT
  8
32
  2
RECT
 10
-14.7250
 20
11.5500
 30
0.0000
 41
0.6500
 42
0.9000
 43
1.0000
 50
180.0000
  0
INSERT
  8
32
  2
RECT
 10
-15.6000
 20
11.5500
 30
0.0000
 41
0.5000
 42
0.9000
 43
1.0000
 50
180.0000
  0
INSERT
  8
32
  2
RECT
 10
-16.4000
 20
11.5500
 30
0.0000
 41
0.5000
 42
0.9000
 43
1.0000
 50
180.0000
  0
INSERT
  8
32
  2
RECT
 10
-17.2750
 20
11.5500
 30
0.0000
 41
0.6500
 42
0.9000
 43
1.0000
 50
180.0000
  0
INSERT
  8
32
  2
RECT
 10
-17.2750
 20
13.2500
 30
0.0000
 41
0.6500
 42
0.9000
 43
1.0000
 50
180.0000
  0
INSERT
  8
32
  2
RECT
 10
-16.4000
 20
13.2500
 30
0.0000
 41
0.5000
 42
0.9000
 43
1.0000
 50
180.0000
  0
INSERT
  8
32
  2
RECT
 10
-15.6000
 20
13.2500
 30
0.0000
 41
0.5000
 42
0.9000
 43
1.0000
 50
180.0000
  0
INSERT
  8
32
  2
RECT
 10
-14.7250
 20
13.2500
 30
0.0000
 41
0.6500
 42
0.9000
 43
1.0000
 50
180.0000
  0
INSERT
  8
32
  2
RECT
 10
-15.3250
 20
-10.8500
 30
0.0000
 41
0.6500
 42
0.9000
 43
1.0000
 50
180.0000
  0
INSERT
  8
32
  2
RECT
 10
-16.2000
 20
-10.8500
 30
0.0000
 41
0.5000
 42
0.9000
 43
1.0000
 50
180.0000
  0
INSERT
  8
32
  2
RECT
 10
-17.0000
 20
-10.8500
 30
0.0000
 41
0.5000
 42
0.9000
 43
1.0000
 50
180.0000
  0
INSERT
  8
32
  2
RECT
 10
-17.8750
 20
-10.8500
 30
0.0000
 41
0.6500
 42
0.9000
 43
1.0000
 50
180.0000
  0
INSERT
  8
32
  2
RECT
 10
-17.8750
 20
-9.1500
 30
0.0000
 41
0.6500
 42
0.9000
 43
1.0000
 50
180.0000
  0
INSERT
  8
32
  2
RECT
 10
-17.0000
 20
-9.1500
 30
0.0000
 41
0.5000
 42
0.9000
 43
1.0000
 50
180.0000
  0
INSERT
  8
32
  2
RECT
 10
-16.2000
 20
-9.1500
 30
0.0000
 41
0.5000
 42
0.9000
 43
1.0000
 50
180.0000
  0
INSERT
  8
32
  2
RECT
 10
-15.3250
 20
-9.1500
 30
0.0000
 41
0.6500
 42
0.9000
 43
1.0000
 50
180.0000
  0
INSERT
  8
32
  2
RECT
 10
-4.6250
 20
-13.5500
 30
0.0000
 41
0.6500
 42
0.9000
 43
1.0000
 50
180.0000
  0
INSERT
  8
32
  2
RECT
 10
-5.5000
 20
-13.5500
 30
0.0000
 41
0.5000
 42
0.9000
 43
1.0000
 50
180.0000
  0
INSERT
  8
32
  2
RECT
 10
-6.3000
 20
-13.5500
 30
0.0000
 41
0.5000
 42
0.9000
 43
1.0000
 50
180.0000
  0
INSERT
  8
32
  2
RECT
 10
-7.1750
 20
-13.5500
 30
0.0000
 41
0.6500
 42
0.9000
 43
1.0000
 50
180.0000
  0
INSERT
  8
32
  2
RECT
 10
-7.1750
 20
-11.8500
 30
0.0000
 41
0.6500
 42
0.9000
 43
1.0000
 50
180.0000
  0
INSERT
  8
32
  2
RECT
 10
-6.3000
 20
-11.8500
 30
0.0000
 41
0.5000
 42
0.9000
 43
1.0000
 50
180.0000
  0
INSERT
  8
32
  2
RECT
 10
-5.5000
 20
-11.8500
 30
0.0000
 41
0.5000
 42
0.9000
 43
1.0000
 50
180.0000
  0
INSERT
  8
32
  2
RECT
 10
-4.6250
 20
-11.8500
 30
0.0000
 41
0.6500
 42
0.9000
 43
1.0000
 50
180.0000
  0
INSERT
  8
32
  2
RECT
 10
10.6400
 20
15.8900
 30
0.0000
 41
0.5000
 42
0.6000
 43
1.0000
 50
0.0000
  0
INSERT
  8
32
  2
RECT
 10
11.6400
 20
15.8900
 30
0.0000
 41
0.5000
 42
0.6000
 43
1.0000
 50
0.0000
  0
INSERT
  8
32
  2
RECT
 10
4.0377
 20
8.7192
 30
0.0000
 41
0.5000
 42
0.6000
 43
1.0000
 50
90.0000
  0
INSERT
  8
32
  2
RECT
 10
4.0377
 20
9.7192
 30
0.0000
 41
0.5000
 42
0.6000
 43
1.0000
 50
90.0000
  0
INSERT
  8
32
  2
RECT
 10
5.2500
 20
7.4200
 30
0.0000
 41
0.5000
 42
0.6000
 43
1.0000
 50
90.0000
  0
INSERT
  8
32
  2
RECT
 10
5.2500
 20
8.4200
 30
0.0000
 41
0.5000
 42
0.6000
 43
1.0000
 50
90.0000
  0
INSERT
  8
32
  2
RECT
 10
13.4722
 20
9.1950
 30
0.0000
 41
0.3048
 42
0.9906
 43
1.0000
 50
90.0000
  0
INSERT
  8
32
  2
RECT
 10
13.4722
 20
9.8450
 30
0.0000
 41
0.3048
 42
0.9906
 43
1.0000
 50
90.0000
  0
INSERT
  8
32
  2
RECT
 10
13.4722
 20
10.4950
 30
0.0000
 41
0.3048
 42
0.9906
 43
1.0000
 50
90.0000
  0
INSERT
  8
32
  2
RECT
 10
13.4722
 20
11.1450
 30
0.0000
 41
0.3048
 42
0.9906
 43
1.0000
 50
90.0000
  0
INSERT
  8
32
  2
RECT
 10
13.4722
 20
11.7950
 30
0.0000
 41
0.3048
 42
0.9906
 43
1.0000
 50
90.0000
  0
INSERT
  8
32
  2
RECT
 10
13.4722
 20
12.4450
 30
0.0000
 41
0.3048
 42
0.9906
 43
1.0000
 50
90.0000
  0
INSERT
  8
32
  2
RECT
 10
13.4722
 20
13.0950
 30
0.0000
 41
0.3048
 42
0.9906
 43
1.0000
 50
90.0000
  0
INSERT
  8
32
  2
RECT
 10
13.4722
 20
13.7450
 30
0.0000
 41
0.3048
 42
0.9906
 43
1.0000
 50
90.0000
  0
INSERT
  8
32
  2
RECT
 10
19.3078
 20
13.7450
 30
0.0000
 41
0.3048
 42
0.9906
 43
1.0000
 50
90.0000
  0
INSERT
  8
32
  2
RECT
 10
19.3078
 20
13.0950
 30
0.0000
 41
0.3048
 42
0.9906
 43
1.0000
 50
90.0000
  0
INSERT
  8
32
  2
RECT
 10
19.3078
 20
12.4450
 30
0.0000
 41
0.3048
 42
0.9906
 43
1.0000
 50
90.0000
  0
INSERT
  8
32
  2
RECT
 10
19.3078
 20
11.7950
 30
0.0000
 41
0.3048
 42
0.9906
 43
1.0000
 50
90.0000
  0
INSERT
  8
32
  2
RECT
 10
19.3078
 20
11.1450
 30
0.0000
 41
0.3048
 42
0.9906
 43
1.0000
 50
90.0000
  0
INSERT
  8
32
  2
RECT
 10
19.3078
 20
10.4950
 30
0.0000
 41
0.3048
 42
0.9906
 43
1.0000
 50
90.0000
  0
INSERT
  8
32
  2
RECT
 10
19.3078
 20
9.8450
 30
0.0000
 41
0.3048
 42
0.9906
 43
1.0000
 50
90.0000
  0
INSERT
  8
32
  2
RECT
 10
19.3078
 20
9.1950
 30
0.0000
 41
0.3048
 42
0.9906
 43
1.0000
 50
90.0000
  0
INSERT
  8
32
  2
RECT
 10
10.6162
 20
-10.1150
 30
0.0000
 41
0.6096
 42
2.2098
 43
1.0000
 50
270.0000
  0
INSERT
  8
32
  2
RECT
 10
10.6162
 20
-11.3850
 30
0.0000
 41
0.6096
 42
2.2098
 43
1.0000
 50
270.0000
  0
INSERT
  8
32
  2
RECT
 10
10.6162
 20
-12.6550
 30
0.0000
 41
0.6096
 42
2.2098
 43
1.0000
 50
270.0000
  0
INSERT
  8
32
  2
RECT
 10
10.6162
 20
-13.9250
 30
0.0000
 41
0.6096
 42
2.2098
 43
1.0000
 50
270.0000
  0
INSERT
  8
32
  2
RECT
 10
5.3838
 20
-13.9250
 30
0.0000
 41
0.6096
 42
2.2098
 43
1.0000
 50
270.0000
  0
INSERT
  8
32
  2
RECT
 10
5.3838
 20
-12.6550
 30
0.0000
 41
0.6096
 42
2.2098
 43
1.0000
 50
270.0000
  0
INSERT
  8
32
  2
RECT
 10
5.3838
 20
-11.3850
 30
0.0000
 41
0.6096
 42
2.2098
 43
1.0000
 50
270.0000
  0
INSERT
  8
32
  2
RECT
 10
5.3838
 20
-10.1150
 30
0.0000
 41
0.6096
 42
2.2098
 43
1.0000
 50
270.0000
  0
INSERT
  8
32
  2
RECT
 10
-5.4178
 20
-2.0750
 30
0.0000
 41
0.3048
 42
0.9906
 43
1.0000
 50
90.0000
  0
INSERT
  8
32
  2
RECT
 10
-5.4178
 20
-1.4250
 30
0.0000
 41
0.3048
 42
0.9906
 43
1.0000
 50
90.0000
  0
INSERT
  8
32
  2
RECT
 10
-5.4178
 20
-0.7750
 30
0.0000
 41
0.3048
 42
0.9906
 43
1.0000
 50
90.0000
  0
INSERT
  8
32
  2
RECT
 10
-5.4178
 20
-0.1250
 30
0.0000
 41
0.3048
 42
0.9906
 43
1.0000
 50
90.0000
  0
INSERT
  8
32
  2
RECT
 10
-5.4178
 20
0.5250
 30
0.0000
 41
0.3048
 42
0.9906
 43
1.0000
 50
90.0000
  0
INSERT
  8
32
  2
RECT
 10
-5.4178
 20
1.1750
 30
0.0000
 41
0.3048
 42
0.9906
 43
1.0000
 50
90.0000
  0
INSERT
  8
32
  2
RECT
 10
-5.4178
 20
1.8250
 30
0.0000
 41
0.3048
 42
0.9906
 43
1.0000
 50
90.0000
  0
INSERT
  8
32
  2
RECT
 10
-5.4178
 20
2.4750
 30
0.0000
 41
0.3048
 42
0.9906
 43
1.0000
 50
90.0000
  0
INSERT
  8
32
  2
RECT
 10
-5.4178
 20
3.1250
 30
0.0000
 41
0.3048
 42
0.9906
 43
1.0000
 50
90.0000
  0
INSERT
  8
32
  2
RECT
 10
-5.4178
 20
3.7750
 30
0.0000
 41
0.3048
 42
0.9906
 43
1.0000
 50
90.0000
  0
INSERT
  8
32
  2
RECT
 10
-5.4178
 20
4.4250
 30
0.0000
 41
0.3048
 42
0.9906
 43
1.0000
 50
90.0000
  0
INSERT
  8
32
  2
RECT
 10
-5.4178
 20
5.0750
 30
0.0000
 41
0.3048
 42
0.9906
 43
1.0000
 50
90.0000
  0
INSERT
  8
32
  2
RECT
 10
0.4178
 20
5.0750
 30
0.0000
 41
0.3048
 42
0.9906
 43
1.0000
 50
90.0000
  0
INSERT
  8
32
  2
RECT
 10
0.4178
 20
4.4250
 30
0.0000
 41
0.3048
 42
0.9906
 43
1.0000
 50
90.0000
  0
INSERT
  8
32
  2
RECT
 10
0.4178
 20
3.7750
 30
0.0000
 41
0.3048
 42
0.9906
 43
1.0000
 50
90.0000
  0
INSERT
  8
32
  2
RECT
 10
0.4178
 20
3.1250
 30
0.0000
 41
0.3048
 42
0.9906
 43
1.0000
 50
90.0000
  0
INSERT
  8
32
  2
RECT
 10
0.4178
 20
2.4750
 30
0.0000
 41
0.3048
 42
0.9906
 43
1.0000
 50
90.0000
  0
INSERT
  8
32
  2
RECT
 10
0.4178
 20
1.8250
 30
0.0000
 41
0.3048
 42
0.9906
 43
1.0000
 50
90.0000
  0
INSERT
  8
32
  2
RECT
 10
0.4178
 20
1.1750
 30
0.0000
 41
0.3048
 42
0.9906
 43
1.0000
 50
90.0000
  0
INSERT
  8
32
  2
RECT
 10
0.4178
 20
0.5250
 30
0.0000
 41
0.3048
 42
0.9906
 43
1.0000
 50
90.0000
  0
INSERT
  8
32
  2
RECT
 10
0.4178
 20
-0.1250
 30
0.0000
 41
0.3048
 42
0.9906
 43
1.0000
 50
90.0000
  0
INSERT
  8
32
  2
RECT
 10
0.4178
 20
-0.7750
 30
0.0000
 41
0.3048
 42
0.9906
 43
1.0000
 50
90.0000
  0
INSERT
  8
32
  2
RECT
 10
0.4178
 20
-1.4250
 30
0.0000
 41
0.3048
 42
0.9906
 43
1.0000
 50
90.0000
  0
INSERT
  8
32
  2
RECT
 10
0.4178
 20
-2.0750
 30
0.0000
 41
0.3048
 42
0.9906
 43
1.0000
 50
90.0000
  0
ENDSEC
  0
EOF
