G75*
%MOIN*%
%OFA0B0*%
%FSLAX24Y24*%
%IPPOS*%
%LPD*%
%AMOC8*
5,1,8,0,0,1.08239X$1,22.5*
%
%ADD10C,0.0000*%
%ADD11C,0.1615*%
%ADD12R,0.0470X0.0200*%
%ADD13R,0.0316X0.0277*%
%ADD14C,0.0830*%
%ADD15R,0.0277X0.0316*%
%ADD16R,0.0950X0.0320*%
%ADD17R,0.0336X0.0434*%
%ADD18R,0.0277X0.0434*%
%ADD19C,0.0800*%
%ADD20C,0.1360*%
%ADD21R,0.2580X0.0379*%
%ADD22C,0.0050*%
D10*
X002650Y003647D02*
X002750Y003641D01*
X002849Y003631D01*
X002947Y003617D01*
X003045Y003600D01*
X003143Y003579D01*
X003239Y003554D01*
X003334Y003525D01*
X003429Y003493D01*
X003522Y003458D01*
X003613Y003418D01*
X003703Y003376D01*
X003791Y003330D01*
X003878Y003280D01*
X003962Y003228D01*
X004045Y003172D01*
X004125Y003113D01*
X004203Y003051D01*
X004278Y002986D01*
X004351Y002919D01*
X004422Y002848D01*
X004489Y002775D01*
X004554Y002700D01*
X004616Y002622D01*
X004675Y002542D01*
X004731Y002459D01*
X004783Y002375D01*
X004833Y002288D01*
X004879Y002200D01*
X004921Y002110D01*
X004961Y002019D01*
X004996Y001926D01*
X005028Y001831D01*
X005057Y001736D01*
X005082Y001640D01*
X005103Y001542D01*
X005120Y001444D01*
X005134Y001346D01*
X005144Y001247D01*
X005150Y001147D01*
X005151Y001148D02*
X005155Y001093D01*
X005163Y001039D01*
X005175Y000986D01*
X005190Y000933D01*
X005209Y000882D01*
X005232Y000832D01*
X005257Y000784D01*
X005287Y000738D01*
X005319Y000694D01*
X005354Y000652D01*
X005392Y000613D01*
X005433Y000576D01*
X005476Y000543D01*
X005522Y000512D01*
X005569Y000485D01*
X005618Y000461D01*
X005669Y000441D01*
X005721Y000424D01*
X005774Y000411D01*
X005828Y000402D01*
X005882Y000396D01*
X005937Y000394D01*
X005937Y000393D02*
X019805Y000393D01*
X019805Y000394D02*
X019860Y000396D01*
X019914Y000402D01*
X019968Y000411D01*
X020021Y000424D01*
X020073Y000441D01*
X020124Y000461D01*
X020173Y000485D01*
X020220Y000512D01*
X020266Y000543D01*
X020309Y000576D01*
X020350Y000613D01*
X020388Y000652D01*
X020423Y000694D01*
X020455Y000738D01*
X020485Y000784D01*
X020510Y000832D01*
X020533Y000882D01*
X020552Y000933D01*
X020567Y000986D01*
X020579Y001039D01*
X020587Y001093D01*
X020591Y001148D01*
X018599Y001360D02*
X018601Y001415D01*
X018607Y001469D01*
X018617Y001523D01*
X018630Y001576D01*
X018647Y001628D01*
X018668Y001679D01*
X018693Y001728D01*
X018721Y001775D01*
X018752Y001820D01*
X018787Y001863D01*
X018824Y001903D01*
X018864Y001940D01*
X018907Y001975D01*
X018952Y002006D01*
X018999Y002034D01*
X019048Y002059D01*
X019099Y002080D01*
X019151Y002097D01*
X019204Y002110D01*
X019258Y002120D01*
X019312Y002126D01*
X019367Y002128D01*
X019422Y002126D01*
X019476Y002120D01*
X019530Y002110D01*
X019583Y002097D01*
X019635Y002080D01*
X019686Y002059D01*
X019735Y002034D01*
X019782Y002006D01*
X019827Y001975D01*
X019870Y001940D01*
X019910Y001903D01*
X019947Y001863D01*
X019982Y001820D01*
X020013Y001775D01*
X020041Y001728D01*
X020066Y001679D01*
X020087Y001628D01*
X020104Y001576D01*
X020117Y001523D01*
X020127Y001469D01*
X020133Y001415D01*
X020135Y001360D01*
X020133Y001305D01*
X020127Y001251D01*
X020117Y001197D01*
X020104Y001144D01*
X020087Y001092D01*
X020066Y001041D01*
X020041Y000992D01*
X020013Y000945D01*
X019982Y000900D01*
X019947Y000857D01*
X019910Y000817D01*
X019870Y000780D01*
X019827Y000745D01*
X019782Y000714D01*
X019735Y000686D01*
X019686Y000661D01*
X019635Y000640D01*
X019583Y000623D01*
X019530Y000610D01*
X019476Y000600D01*
X019422Y000594D01*
X019367Y000592D01*
X019312Y000594D01*
X019258Y000600D01*
X019204Y000610D01*
X019151Y000623D01*
X019099Y000640D01*
X019048Y000661D01*
X018999Y000686D01*
X018952Y000714D01*
X018907Y000745D01*
X018864Y000780D01*
X018824Y000817D01*
X018787Y000857D01*
X018752Y000900D01*
X018721Y000945D01*
X018693Y000992D01*
X018668Y001041D01*
X018647Y001092D01*
X018630Y001144D01*
X018617Y001197D01*
X018607Y001251D01*
X018601Y001305D01*
X018599Y001360D01*
X020592Y001147D02*
X020598Y001247D01*
X020608Y001346D01*
X020622Y001444D01*
X020639Y001542D01*
X020660Y001640D01*
X020685Y001736D01*
X020714Y001831D01*
X020746Y001926D01*
X020781Y002019D01*
X020821Y002110D01*
X020863Y002200D01*
X020909Y002288D01*
X020959Y002375D01*
X021011Y002459D01*
X021067Y002542D01*
X021126Y002622D01*
X021188Y002700D01*
X021253Y002775D01*
X021320Y002848D01*
X021391Y002919D01*
X021464Y002986D01*
X021539Y003051D01*
X021617Y003113D01*
X021697Y003172D01*
X021780Y003228D01*
X021864Y003280D01*
X021951Y003330D01*
X022039Y003376D01*
X022129Y003418D01*
X022220Y003458D01*
X022313Y003493D01*
X022408Y003525D01*
X022503Y003554D01*
X022599Y003579D01*
X022697Y003600D01*
X022795Y003617D01*
X022893Y003631D01*
X022992Y003641D01*
X023092Y003647D01*
X023091Y003648D02*
X023146Y003652D01*
X023200Y003660D01*
X023253Y003672D01*
X023306Y003687D01*
X023357Y003706D01*
X023407Y003729D01*
X023455Y003754D01*
X023501Y003784D01*
X023545Y003816D01*
X023587Y003851D01*
X023626Y003889D01*
X023663Y003930D01*
X023696Y003973D01*
X023727Y004019D01*
X023754Y004066D01*
X023778Y004115D01*
X023798Y004166D01*
X023815Y004218D01*
X023828Y004271D01*
X023837Y004325D01*
X023843Y004379D01*
X023845Y004434D01*
X023845Y012459D01*
X023843Y012514D01*
X023837Y012568D01*
X023828Y012622D01*
X023815Y012675D01*
X023798Y012727D01*
X023778Y012778D01*
X023754Y012827D01*
X023727Y012874D01*
X023696Y012920D01*
X023663Y012963D01*
X023626Y013004D01*
X023587Y013042D01*
X023545Y013077D01*
X023501Y013109D01*
X023455Y013139D01*
X023407Y013164D01*
X023357Y013187D01*
X023306Y013206D01*
X023253Y013221D01*
X023200Y013233D01*
X023146Y013241D01*
X023091Y013245D01*
X018599Y015533D02*
X018601Y015588D01*
X018607Y015642D01*
X018617Y015696D01*
X018630Y015749D01*
X018647Y015801D01*
X018668Y015852D01*
X018693Y015901D01*
X018721Y015948D01*
X018752Y015993D01*
X018787Y016036D01*
X018824Y016076D01*
X018864Y016113D01*
X018907Y016148D01*
X018952Y016179D01*
X018999Y016207D01*
X019048Y016232D01*
X019099Y016253D01*
X019151Y016270D01*
X019204Y016283D01*
X019258Y016293D01*
X019312Y016299D01*
X019367Y016301D01*
X019422Y016299D01*
X019476Y016293D01*
X019530Y016283D01*
X019583Y016270D01*
X019635Y016253D01*
X019686Y016232D01*
X019735Y016207D01*
X019782Y016179D01*
X019827Y016148D01*
X019870Y016113D01*
X019910Y016076D01*
X019947Y016036D01*
X019982Y015993D01*
X020013Y015948D01*
X020041Y015901D01*
X020066Y015852D01*
X020087Y015801D01*
X020104Y015749D01*
X020117Y015696D01*
X020127Y015642D01*
X020133Y015588D01*
X020135Y015533D01*
X020133Y015478D01*
X020127Y015424D01*
X020117Y015370D01*
X020104Y015317D01*
X020087Y015265D01*
X020066Y015214D01*
X020041Y015165D01*
X020013Y015118D01*
X019982Y015073D01*
X019947Y015030D01*
X019910Y014990D01*
X019870Y014953D01*
X019827Y014918D01*
X019782Y014887D01*
X019735Y014859D01*
X019686Y014834D01*
X019635Y014813D01*
X019583Y014796D01*
X019530Y014783D01*
X019476Y014773D01*
X019422Y014767D01*
X019367Y014765D01*
X019312Y014767D01*
X019258Y014773D01*
X019204Y014783D01*
X019151Y014796D01*
X019099Y014813D01*
X019048Y014834D01*
X018999Y014859D01*
X018952Y014887D01*
X018907Y014918D01*
X018864Y014953D01*
X018824Y014990D01*
X018787Y015030D01*
X018752Y015073D01*
X018721Y015118D01*
X018693Y015165D01*
X018668Y015214D01*
X018647Y015265D01*
X018630Y015317D01*
X018617Y015370D01*
X018607Y015424D01*
X018601Y015478D01*
X018599Y015533D01*
X019805Y016499D02*
X019860Y016497D01*
X019914Y016491D01*
X019968Y016482D01*
X020021Y016469D01*
X020073Y016452D01*
X020124Y016432D01*
X020173Y016408D01*
X020220Y016381D01*
X020266Y016350D01*
X020309Y016317D01*
X020350Y016280D01*
X020388Y016241D01*
X020423Y016199D01*
X020455Y016155D01*
X020485Y016109D01*
X020510Y016061D01*
X020533Y016011D01*
X020552Y015960D01*
X020567Y015907D01*
X020579Y015854D01*
X020587Y015800D01*
X020591Y015745D01*
X019805Y016500D02*
X005937Y016500D01*
X005937Y016499D02*
X005882Y016497D01*
X005828Y016491D01*
X005774Y016482D01*
X005721Y016469D01*
X005669Y016452D01*
X005618Y016432D01*
X005569Y016408D01*
X005522Y016381D01*
X005476Y016350D01*
X005433Y016317D01*
X005392Y016280D01*
X005354Y016241D01*
X005319Y016199D01*
X005287Y016155D01*
X005257Y016109D01*
X005232Y016061D01*
X005209Y016011D01*
X005190Y015960D01*
X005175Y015907D01*
X005163Y015854D01*
X005155Y015800D01*
X005151Y015745D01*
X005607Y015533D02*
X005609Y015588D01*
X005615Y015642D01*
X005625Y015696D01*
X005638Y015749D01*
X005655Y015801D01*
X005676Y015852D01*
X005701Y015901D01*
X005729Y015948D01*
X005760Y015993D01*
X005795Y016036D01*
X005832Y016076D01*
X005872Y016113D01*
X005915Y016148D01*
X005960Y016179D01*
X006007Y016207D01*
X006056Y016232D01*
X006107Y016253D01*
X006159Y016270D01*
X006212Y016283D01*
X006266Y016293D01*
X006320Y016299D01*
X006375Y016301D01*
X006430Y016299D01*
X006484Y016293D01*
X006538Y016283D01*
X006591Y016270D01*
X006643Y016253D01*
X006694Y016232D01*
X006743Y016207D01*
X006790Y016179D01*
X006835Y016148D01*
X006878Y016113D01*
X006918Y016076D01*
X006955Y016036D01*
X006990Y015993D01*
X007021Y015948D01*
X007049Y015901D01*
X007074Y015852D01*
X007095Y015801D01*
X007112Y015749D01*
X007125Y015696D01*
X007135Y015642D01*
X007141Y015588D01*
X007143Y015533D01*
X007141Y015478D01*
X007135Y015424D01*
X007125Y015370D01*
X007112Y015317D01*
X007095Y015265D01*
X007074Y015214D01*
X007049Y015165D01*
X007021Y015118D01*
X006990Y015073D01*
X006955Y015030D01*
X006918Y014990D01*
X006878Y014953D01*
X006835Y014918D01*
X006790Y014887D01*
X006743Y014859D01*
X006694Y014834D01*
X006643Y014813D01*
X006591Y014796D01*
X006538Y014783D01*
X006484Y014773D01*
X006430Y014767D01*
X006375Y014765D01*
X006320Y014767D01*
X006266Y014773D01*
X006212Y014783D01*
X006159Y014796D01*
X006107Y014813D01*
X006056Y014834D01*
X006007Y014859D01*
X005960Y014887D01*
X005915Y014918D01*
X005872Y014953D01*
X005832Y014990D01*
X005795Y015030D01*
X005760Y015073D01*
X005729Y015118D01*
X005701Y015165D01*
X005676Y015214D01*
X005655Y015265D01*
X005638Y015317D01*
X005625Y015370D01*
X005615Y015424D01*
X005609Y015478D01*
X005607Y015533D01*
X005150Y015746D02*
X005144Y015646D01*
X005134Y015547D01*
X005120Y015449D01*
X005103Y015351D01*
X005082Y015253D01*
X005057Y015157D01*
X005028Y015062D01*
X004996Y014967D01*
X004961Y014874D01*
X004921Y014783D01*
X004879Y014693D01*
X004833Y014605D01*
X004783Y014518D01*
X004731Y014434D01*
X004675Y014351D01*
X004616Y014271D01*
X004554Y014193D01*
X004489Y014118D01*
X004422Y014045D01*
X004351Y013974D01*
X004278Y013907D01*
X004203Y013842D01*
X004125Y013780D01*
X004045Y013721D01*
X003962Y013665D01*
X003878Y013613D01*
X003791Y013563D01*
X003703Y013517D01*
X003613Y013475D01*
X003522Y013435D01*
X003429Y013400D01*
X003334Y013368D01*
X003239Y013339D01*
X003143Y013314D01*
X003045Y013293D01*
X002947Y013276D01*
X002849Y013262D01*
X002750Y013252D01*
X002650Y013246D01*
X002651Y013245D02*
X002596Y013241D01*
X002542Y013233D01*
X002489Y013221D01*
X002436Y013206D01*
X002385Y013187D01*
X002335Y013164D01*
X002287Y013139D01*
X002241Y013109D01*
X002197Y013077D01*
X002155Y013042D01*
X002116Y013004D01*
X002079Y012963D01*
X002046Y012920D01*
X002015Y012874D01*
X001988Y012827D01*
X001964Y012778D01*
X001944Y012727D01*
X001927Y012675D01*
X001914Y012622D01*
X001905Y012568D01*
X001899Y012514D01*
X001897Y012459D01*
X001897Y004434D01*
X001899Y004379D01*
X001905Y004325D01*
X001914Y004271D01*
X001927Y004218D01*
X001944Y004166D01*
X001964Y004115D01*
X001988Y004066D01*
X002015Y004019D01*
X002046Y003973D01*
X002079Y003930D01*
X002116Y003889D01*
X002155Y003851D01*
X002197Y003816D01*
X002241Y003784D01*
X002287Y003754D01*
X002335Y003729D01*
X002385Y003706D01*
X002436Y003687D01*
X002489Y003672D01*
X002542Y003660D01*
X002596Y003652D01*
X002651Y003648D01*
X005607Y001360D02*
X005609Y001415D01*
X005615Y001469D01*
X005625Y001523D01*
X005638Y001576D01*
X005655Y001628D01*
X005676Y001679D01*
X005701Y001728D01*
X005729Y001775D01*
X005760Y001820D01*
X005795Y001863D01*
X005832Y001903D01*
X005872Y001940D01*
X005915Y001975D01*
X005960Y002006D01*
X006007Y002034D01*
X006056Y002059D01*
X006107Y002080D01*
X006159Y002097D01*
X006212Y002110D01*
X006266Y002120D01*
X006320Y002126D01*
X006375Y002128D01*
X006430Y002126D01*
X006484Y002120D01*
X006538Y002110D01*
X006591Y002097D01*
X006643Y002080D01*
X006694Y002059D01*
X006743Y002034D01*
X006790Y002006D01*
X006835Y001975D01*
X006878Y001940D01*
X006918Y001903D01*
X006955Y001863D01*
X006990Y001820D01*
X007021Y001775D01*
X007049Y001728D01*
X007074Y001679D01*
X007095Y001628D01*
X007112Y001576D01*
X007125Y001523D01*
X007135Y001469D01*
X007141Y001415D01*
X007143Y001360D01*
X007141Y001305D01*
X007135Y001251D01*
X007125Y001197D01*
X007112Y001144D01*
X007095Y001092D01*
X007074Y001041D01*
X007049Y000992D01*
X007021Y000945D01*
X006990Y000900D01*
X006955Y000857D01*
X006918Y000817D01*
X006878Y000780D01*
X006835Y000745D01*
X006790Y000714D01*
X006743Y000686D01*
X006694Y000661D01*
X006643Y000640D01*
X006591Y000623D01*
X006538Y000610D01*
X006484Y000600D01*
X006430Y000594D01*
X006375Y000592D01*
X006320Y000594D01*
X006266Y000600D01*
X006212Y000610D01*
X006159Y000623D01*
X006107Y000640D01*
X006056Y000661D01*
X006007Y000686D01*
X005960Y000714D01*
X005915Y000745D01*
X005872Y000780D01*
X005832Y000817D01*
X005795Y000857D01*
X005760Y000900D01*
X005729Y000945D01*
X005701Y000992D01*
X005676Y001041D01*
X005655Y001092D01*
X005638Y001144D01*
X005625Y001197D01*
X005615Y001251D01*
X005609Y001305D01*
X005607Y001360D01*
X002611Y006196D02*
X002613Y006246D01*
X002619Y006296D01*
X002629Y006345D01*
X002642Y006394D01*
X002660Y006441D01*
X002681Y006487D01*
X002705Y006530D01*
X002733Y006572D01*
X002764Y006612D01*
X002798Y006649D01*
X002835Y006683D01*
X002875Y006714D01*
X002917Y006742D01*
X002960Y006766D01*
X003006Y006787D01*
X003053Y006805D01*
X003102Y006818D01*
X003151Y006828D01*
X003201Y006834D01*
X003251Y006836D01*
X003301Y006834D01*
X003351Y006828D01*
X003400Y006818D01*
X003449Y006805D01*
X003496Y006787D01*
X003542Y006766D01*
X003585Y006742D01*
X003627Y006714D01*
X003667Y006683D01*
X003704Y006649D01*
X003738Y006612D01*
X003769Y006572D01*
X003797Y006530D01*
X003821Y006487D01*
X003842Y006441D01*
X003860Y006394D01*
X003873Y006345D01*
X003883Y006296D01*
X003889Y006246D01*
X003891Y006196D01*
X003889Y006146D01*
X003883Y006096D01*
X003873Y006047D01*
X003860Y005998D01*
X003842Y005951D01*
X003821Y005905D01*
X003797Y005862D01*
X003769Y005820D01*
X003738Y005780D01*
X003704Y005743D01*
X003667Y005709D01*
X003627Y005678D01*
X003585Y005650D01*
X003542Y005626D01*
X003496Y005605D01*
X003449Y005587D01*
X003400Y005574D01*
X003351Y005564D01*
X003301Y005558D01*
X003251Y005556D01*
X003201Y005558D01*
X003151Y005564D01*
X003102Y005574D01*
X003053Y005587D01*
X003006Y005605D01*
X002960Y005626D01*
X002917Y005650D01*
X002875Y005678D01*
X002835Y005709D01*
X002798Y005743D01*
X002764Y005780D01*
X002733Y005820D01*
X002705Y005862D01*
X002681Y005905D01*
X002660Y005951D01*
X002642Y005998D01*
X002629Y006047D01*
X002619Y006096D01*
X002613Y006146D01*
X002611Y006196D01*
X002611Y010696D02*
X002613Y010746D01*
X002619Y010796D01*
X002629Y010845D01*
X002642Y010894D01*
X002660Y010941D01*
X002681Y010987D01*
X002705Y011030D01*
X002733Y011072D01*
X002764Y011112D01*
X002798Y011149D01*
X002835Y011183D01*
X002875Y011214D01*
X002917Y011242D01*
X002960Y011266D01*
X003006Y011287D01*
X003053Y011305D01*
X003102Y011318D01*
X003151Y011328D01*
X003201Y011334D01*
X003251Y011336D01*
X003301Y011334D01*
X003351Y011328D01*
X003400Y011318D01*
X003449Y011305D01*
X003496Y011287D01*
X003542Y011266D01*
X003585Y011242D01*
X003627Y011214D01*
X003667Y011183D01*
X003704Y011149D01*
X003738Y011112D01*
X003769Y011072D01*
X003797Y011030D01*
X003821Y010987D01*
X003842Y010941D01*
X003860Y010894D01*
X003873Y010845D01*
X003883Y010796D01*
X003889Y010746D01*
X003891Y010696D01*
X003889Y010646D01*
X003883Y010596D01*
X003873Y010547D01*
X003860Y010498D01*
X003842Y010451D01*
X003821Y010405D01*
X003797Y010362D01*
X003769Y010320D01*
X003738Y010280D01*
X003704Y010243D01*
X003667Y010209D01*
X003627Y010178D01*
X003585Y010150D01*
X003542Y010126D01*
X003496Y010105D01*
X003449Y010087D01*
X003400Y010074D01*
X003351Y010064D01*
X003301Y010058D01*
X003251Y010056D01*
X003201Y010058D01*
X003151Y010064D01*
X003102Y010074D01*
X003053Y010087D01*
X003006Y010105D01*
X002960Y010126D01*
X002917Y010150D01*
X002875Y010178D01*
X002835Y010209D01*
X002798Y010243D01*
X002764Y010280D01*
X002733Y010320D01*
X002705Y010362D01*
X002681Y010405D01*
X002660Y010451D01*
X002642Y010498D01*
X002629Y010547D01*
X002619Y010596D01*
X002613Y010646D01*
X002611Y010696D01*
X021851Y010696D02*
X021853Y010746D01*
X021859Y010796D01*
X021869Y010845D01*
X021882Y010894D01*
X021900Y010941D01*
X021921Y010987D01*
X021945Y011030D01*
X021973Y011072D01*
X022004Y011112D01*
X022038Y011149D01*
X022075Y011183D01*
X022115Y011214D01*
X022157Y011242D01*
X022200Y011266D01*
X022246Y011287D01*
X022293Y011305D01*
X022342Y011318D01*
X022391Y011328D01*
X022441Y011334D01*
X022491Y011336D01*
X022541Y011334D01*
X022591Y011328D01*
X022640Y011318D01*
X022689Y011305D01*
X022736Y011287D01*
X022782Y011266D01*
X022825Y011242D01*
X022867Y011214D01*
X022907Y011183D01*
X022944Y011149D01*
X022978Y011112D01*
X023009Y011072D01*
X023037Y011030D01*
X023061Y010987D01*
X023082Y010941D01*
X023100Y010894D01*
X023113Y010845D01*
X023123Y010796D01*
X023129Y010746D01*
X023131Y010696D01*
X023129Y010646D01*
X023123Y010596D01*
X023113Y010547D01*
X023100Y010498D01*
X023082Y010451D01*
X023061Y010405D01*
X023037Y010362D01*
X023009Y010320D01*
X022978Y010280D01*
X022944Y010243D01*
X022907Y010209D01*
X022867Y010178D01*
X022825Y010150D01*
X022782Y010126D01*
X022736Y010105D01*
X022689Y010087D01*
X022640Y010074D01*
X022591Y010064D01*
X022541Y010058D01*
X022491Y010056D01*
X022441Y010058D01*
X022391Y010064D01*
X022342Y010074D01*
X022293Y010087D01*
X022246Y010105D01*
X022200Y010126D01*
X022157Y010150D01*
X022115Y010178D01*
X022075Y010209D01*
X022038Y010243D01*
X022004Y010280D01*
X021973Y010320D01*
X021945Y010362D01*
X021921Y010405D01*
X021900Y010451D01*
X021882Y010498D01*
X021869Y010547D01*
X021859Y010596D01*
X021853Y010646D01*
X021851Y010696D01*
X021851Y006196D02*
X021853Y006246D01*
X021859Y006296D01*
X021869Y006345D01*
X021882Y006394D01*
X021900Y006441D01*
X021921Y006487D01*
X021945Y006530D01*
X021973Y006572D01*
X022004Y006612D01*
X022038Y006649D01*
X022075Y006683D01*
X022115Y006714D01*
X022157Y006742D01*
X022200Y006766D01*
X022246Y006787D01*
X022293Y006805D01*
X022342Y006818D01*
X022391Y006828D01*
X022441Y006834D01*
X022491Y006836D01*
X022541Y006834D01*
X022591Y006828D01*
X022640Y006818D01*
X022689Y006805D01*
X022736Y006787D01*
X022782Y006766D01*
X022825Y006742D01*
X022867Y006714D01*
X022907Y006683D01*
X022944Y006649D01*
X022978Y006612D01*
X023009Y006572D01*
X023037Y006530D01*
X023061Y006487D01*
X023082Y006441D01*
X023100Y006394D01*
X023113Y006345D01*
X023123Y006296D01*
X023129Y006246D01*
X023131Y006196D01*
X023129Y006146D01*
X023123Y006096D01*
X023113Y006047D01*
X023100Y005998D01*
X023082Y005951D01*
X023061Y005905D01*
X023037Y005862D01*
X023009Y005820D01*
X022978Y005780D01*
X022944Y005743D01*
X022907Y005709D01*
X022867Y005678D01*
X022825Y005650D01*
X022782Y005626D01*
X022736Y005605D01*
X022689Y005587D01*
X022640Y005574D01*
X022591Y005564D01*
X022541Y005558D01*
X022491Y005556D01*
X022441Y005558D01*
X022391Y005564D01*
X022342Y005574D01*
X022293Y005587D01*
X022246Y005605D01*
X022200Y005626D01*
X022157Y005650D01*
X022115Y005678D01*
X022075Y005709D01*
X022038Y005743D01*
X022004Y005780D01*
X021973Y005820D01*
X021945Y005862D01*
X021921Y005905D01*
X021900Y005951D01*
X021882Y005998D01*
X021869Y006047D01*
X021859Y006096D01*
X021853Y006146D01*
X021851Y006196D01*
X023092Y013246D02*
X022992Y013252D01*
X022893Y013262D01*
X022795Y013276D01*
X022697Y013293D01*
X022599Y013314D01*
X022503Y013339D01*
X022408Y013368D01*
X022313Y013400D01*
X022220Y013435D01*
X022129Y013475D01*
X022039Y013517D01*
X021951Y013563D01*
X021864Y013613D01*
X021780Y013665D01*
X021697Y013721D01*
X021617Y013780D01*
X021539Y013842D01*
X021464Y013907D01*
X021391Y013974D01*
X021320Y014045D01*
X021253Y014118D01*
X021188Y014193D01*
X021126Y014271D01*
X021067Y014351D01*
X021011Y014434D01*
X020959Y014518D01*
X020909Y014605D01*
X020863Y014693D01*
X020821Y014783D01*
X020781Y014874D01*
X020746Y014967D01*
X020714Y015062D01*
X020685Y015157D01*
X020660Y015253D01*
X020639Y015351D01*
X020622Y015449D01*
X020608Y015547D01*
X020598Y015646D01*
X020592Y015746D01*
D11*
X019367Y015533D03*
X006375Y015533D03*
X006375Y001360D03*
X019367Y001360D03*
D12*
X013036Y007630D03*
X013036Y007885D03*
X013036Y008141D03*
X013036Y008397D03*
X013036Y008653D03*
X013036Y008909D03*
X013036Y009165D03*
X013036Y009421D03*
X013036Y009677D03*
X013036Y009933D03*
X013036Y010189D03*
X013036Y010444D03*
X010738Y010444D03*
X010738Y010189D03*
X010738Y009933D03*
X010738Y009677D03*
X010738Y009421D03*
X010738Y009165D03*
X010738Y008909D03*
X010738Y008653D03*
X010738Y008397D03*
X010738Y008141D03*
X010738Y007885D03*
X010738Y007630D03*
X018175Y012067D03*
X018175Y012322D03*
X018175Y012578D03*
X018175Y012834D03*
X018175Y013090D03*
X018175Y013346D03*
X018175Y013602D03*
X018175Y013858D03*
X020473Y013858D03*
X020473Y013602D03*
X020473Y013346D03*
X020473Y013090D03*
X020473Y012834D03*
X020473Y012578D03*
X020473Y012322D03*
X020473Y012067D03*
D13*
X016800Y013194D03*
X016800Y013588D03*
X014461Y012273D03*
X014461Y011879D03*
X014938Y011761D03*
X014938Y011368D03*
D14*
X014824Y013352D03*
X015824Y013352D03*
X015824Y014352D03*
X014824Y014352D03*
X013824Y014352D03*
X012824Y014352D03*
X012824Y013352D03*
X013824Y013352D03*
D15*
X015151Y012320D03*
X015544Y012320D03*
X017060Y014702D03*
X017454Y014702D03*
D16*
X017051Y004464D03*
X017051Y003964D03*
X017051Y003464D03*
X017051Y002964D03*
X014991Y002964D03*
X014991Y003464D03*
X014991Y003964D03*
X014991Y004464D03*
D17*
X011050Y003781D03*
X010046Y003781D03*
X010046Y003112D03*
X011050Y003112D03*
X006838Y004175D03*
X006838Y004844D03*
X005834Y004844D03*
X005834Y004175D03*
X006070Y012994D03*
X006070Y013663D03*
X007074Y013663D03*
X007074Y012994D03*
X010164Y013230D03*
X010164Y013899D03*
X011168Y013899D03*
X011168Y013230D03*
D18*
X010824Y013230D03*
X010509Y013230D03*
X010509Y013899D03*
X010824Y013899D03*
X006729Y013663D03*
X006414Y013663D03*
X006414Y012994D03*
X006729Y012994D03*
X006493Y004844D03*
X006178Y004844D03*
X006178Y004175D03*
X006493Y004175D03*
X010391Y003781D03*
X010706Y003781D03*
X010706Y003112D03*
X010391Y003112D03*
D19*
X013517Y006946D03*
X015517Y008946D03*
X014517Y009946D03*
X016517Y006946D03*
D20*
X022491Y006196D03*
X022491Y010696D03*
X003251Y010696D03*
X003251Y006196D03*
D21*
X007277Y006694D03*
X007277Y007194D03*
X007277Y007694D03*
X007277Y008194D03*
X007277Y008694D03*
X007277Y009196D03*
X007277Y009696D03*
X007277Y010196D03*
X018466Y010198D03*
X018466Y009698D03*
X018466Y009198D03*
X018466Y008698D03*
X018466Y008198D03*
X018466Y007696D03*
X018466Y007196D03*
X018466Y006696D03*
D22*
X017644Y001590D02*
X017710Y001572D01*
X017773Y001543D01*
X017829Y001504D01*
X017877Y001455D01*
X017917Y001399D01*
X017946Y001337D01*
X017964Y001271D01*
X017969Y001202D01*
X017964Y001134D01*
X017946Y001068D01*
X017917Y001006D01*
X017877Y000949D01*
X017829Y000901D01*
X017773Y000861D01*
X017710Y000832D01*
X017644Y000815D01*
X017576Y000809D01*
X017507Y000815D01*
X017441Y000832D01*
X017379Y000861D01*
X017323Y000901D01*
X017274Y000949D01*
X017235Y001006D01*
X017206Y001068D01*
X017188Y001134D01*
X017182Y001202D01*
X017188Y001271D01*
X017206Y001337D01*
X017235Y001399D01*
X017274Y001455D01*
X017323Y001504D01*
X017379Y001543D01*
X017441Y001572D01*
X017507Y001590D01*
X017576Y001596D01*
X017644Y001590D01*
X017738Y001559D02*
X017413Y001559D01*
X017333Y001511D02*
X017819Y001511D01*
X017870Y001462D02*
X017281Y001462D01*
X017245Y001414D02*
X017906Y001414D01*
X017932Y001365D02*
X017219Y001365D01*
X017200Y001317D02*
X017951Y001317D01*
X017964Y001268D02*
X017188Y001268D01*
X017184Y001220D02*
X017968Y001220D01*
X017967Y001171D02*
X017185Y001171D01*
X017191Y001123D02*
X017961Y001123D01*
X017948Y001074D02*
X017204Y001074D01*
X017225Y001026D02*
X017926Y001026D01*
X017897Y000977D02*
X017255Y000977D01*
X017295Y000929D02*
X017857Y000929D01*
X017800Y000880D02*
X017352Y000880D01*
X017443Y000832D02*
X017709Y000832D01*
X002983Y004284D02*
X002965Y004217D01*
X002936Y004155D01*
X002897Y004099D01*
X002849Y004050D01*
X002792Y004011D01*
X002730Y003982D01*
X002664Y003964D01*
X002595Y003958D01*
X002527Y003964D01*
X002461Y003982D01*
X002399Y004011D01*
X002342Y004050D01*
X002294Y004099D01*
X002255Y004155D01*
X002226Y004217D01*
X002208Y004284D01*
X002202Y004352D01*
X002208Y004420D01*
X002226Y004487D01*
X002255Y004549D01*
X002294Y004605D01*
X002342Y004654D01*
X002399Y004693D01*
X002461Y004722D01*
X002527Y004740D01*
X002595Y004746D01*
X002664Y004740D01*
X002730Y004722D01*
X002792Y004693D01*
X002849Y004654D01*
X002897Y004605D01*
X002936Y004549D01*
X002965Y004487D01*
X002983Y004420D01*
X002989Y004352D01*
X002983Y004284D01*
X002981Y004275D02*
X002210Y004275D01*
X002204Y004324D02*
X002987Y004324D01*
X002987Y004372D02*
X002204Y004372D01*
X002208Y004421D02*
X002983Y004421D01*
X002970Y004469D02*
X002221Y004469D01*
X002240Y004518D02*
X002951Y004518D01*
X002924Y004566D02*
X002267Y004566D01*
X002304Y004615D02*
X002887Y004615D01*
X002834Y004663D02*
X002357Y004663D01*
X002439Y004712D02*
X002752Y004712D01*
X002968Y004227D02*
X002223Y004227D01*
X002244Y004178D02*
X002947Y004178D01*
X002919Y004130D02*
X002272Y004130D01*
X002311Y004081D02*
X002880Y004081D01*
X002824Y004033D02*
X002367Y004033D01*
X002456Y003984D02*
X002735Y003984D01*
X008206Y015271D02*
X008149Y015310D01*
X008101Y015359D01*
X008062Y015415D01*
X008033Y015477D01*
X008015Y015543D01*
X008009Y015612D01*
X008015Y015680D01*
X008033Y015746D01*
X008062Y015809D01*
X008101Y015865D01*
X008149Y015913D01*
X008206Y015953D01*
X008268Y015982D01*
X008334Y016000D01*
X008403Y016006D01*
X008471Y016000D01*
X008537Y015982D01*
X008599Y015953D01*
X008656Y015913D01*
X008704Y015865D01*
X008744Y015809D01*
X008773Y015746D01*
X008790Y015680D01*
X008796Y015612D01*
X008790Y015543D01*
X008773Y015477D01*
X008744Y015415D01*
X008704Y015359D01*
X008656Y015310D01*
X008599Y015271D01*
X008537Y015242D01*
X008471Y015224D01*
X008403Y015218D01*
X008334Y015224D01*
X008268Y015242D01*
X008206Y015271D01*
X008186Y015285D02*
X008620Y015285D01*
X008679Y015333D02*
X008126Y015333D01*
X008085Y015382D02*
X008720Y015382D01*
X008751Y015430D02*
X008054Y015430D01*
X008032Y015479D02*
X008773Y015479D01*
X008786Y015527D02*
X008019Y015527D01*
X008012Y015576D02*
X008793Y015576D01*
X008795Y015624D02*
X008010Y015624D01*
X008014Y015673D02*
X008791Y015673D01*
X008779Y015721D02*
X008026Y015721D01*
X008044Y015770D02*
X008762Y015770D01*
X008737Y015818D02*
X008068Y015818D01*
X008103Y015867D02*
X008702Y015867D01*
X008653Y015915D02*
X008152Y015915D01*
X008230Y015964D02*
X008575Y015964D01*
X008517Y015236D02*
X008288Y015236D01*
M02*
