G75*
%MOIN*%
%OFA0B0*%
%FSLAX24Y24*%
%IPPOS*%
%LPD*%
%AMOC8*
5,1,8,0,0,1.08239X$1,22.5*
%
%ADD10C,0.0000*%
%ADD11C,0.0040*%
%ADD12C,0.0060*%
%ADD13C,0.0020*%
%ADD14C,0.0050*%
%ADD15C,0.0400*%
%ADD16C,0.0080*%
D10*
X002650Y003647D02*
X002750Y003641D01*
X002849Y003631D01*
X002947Y003617D01*
X003045Y003600D01*
X003143Y003579D01*
X003239Y003554D01*
X003334Y003525D01*
X003429Y003493D01*
X003522Y003458D01*
X003613Y003418D01*
X003703Y003376D01*
X003791Y003330D01*
X003878Y003280D01*
X003962Y003228D01*
X004045Y003172D01*
X004125Y003113D01*
X004203Y003051D01*
X004278Y002986D01*
X004351Y002919D01*
X004422Y002848D01*
X004489Y002775D01*
X004554Y002700D01*
X004616Y002622D01*
X004675Y002542D01*
X004731Y002459D01*
X004783Y002375D01*
X004833Y002288D01*
X004879Y002200D01*
X004921Y002110D01*
X004961Y002019D01*
X004996Y001926D01*
X005028Y001831D01*
X005057Y001736D01*
X005082Y001640D01*
X005103Y001542D01*
X005120Y001444D01*
X005134Y001346D01*
X005144Y001247D01*
X005150Y001147D01*
X005151Y001148D02*
X005155Y001093D01*
X005163Y001039D01*
X005175Y000986D01*
X005190Y000933D01*
X005209Y000882D01*
X005232Y000832D01*
X005257Y000784D01*
X005287Y000738D01*
X005319Y000694D01*
X005354Y000652D01*
X005392Y000613D01*
X005433Y000576D01*
X005476Y000543D01*
X005522Y000512D01*
X005569Y000485D01*
X005618Y000461D01*
X005669Y000441D01*
X005721Y000424D01*
X005774Y000411D01*
X005828Y000402D01*
X005882Y000396D01*
X005937Y000394D01*
X005937Y000393D02*
X019805Y000393D01*
X019805Y000394D02*
X019860Y000396D01*
X019914Y000402D01*
X019968Y000411D01*
X020021Y000424D01*
X020073Y000441D01*
X020124Y000461D01*
X020173Y000485D01*
X020220Y000512D01*
X020266Y000543D01*
X020309Y000576D01*
X020350Y000613D01*
X020388Y000652D01*
X020423Y000694D01*
X020455Y000738D01*
X020485Y000784D01*
X020510Y000832D01*
X020533Y000882D01*
X020552Y000933D01*
X020567Y000986D01*
X020579Y001039D01*
X020587Y001093D01*
X020591Y001148D01*
X018599Y001360D02*
X018601Y001415D01*
X018607Y001469D01*
X018617Y001523D01*
X018630Y001576D01*
X018647Y001628D01*
X018668Y001679D01*
X018693Y001728D01*
X018721Y001775D01*
X018752Y001820D01*
X018787Y001863D01*
X018824Y001903D01*
X018864Y001940D01*
X018907Y001975D01*
X018952Y002006D01*
X018999Y002034D01*
X019048Y002059D01*
X019099Y002080D01*
X019151Y002097D01*
X019204Y002110D01*
X019258Y002120D01*
X019312Y002126D01*
X019367Y002128D01*
X019422Y002126D01*
X019476Y002120D01*
X019530Y002110D01*
X019583Y002097D01*
X019635Y002080D01*
X019686Y002059D01*
X019735Y002034D01*
X019782Y002006D01*
X019827Y001975D01*
X019870Y001940D01*
X019910Y001903D01*
X019947Y001863D01*
X019982Y001820D01*
X020013Y001775D01*
X020041Y001728D01*
X020066Y001679D01*
X020087Y001628D01*
X020104Y001576D01*
X020117Y001523D01*
X020127Y001469D01*
X020133Y001415D01*
X020135Y001360D01*
X020133Y001305D01*
X020127Y001251D01*
X020117Y001197D01*
X020104Y001144D01*
X020087Y001092D01*
X020066Y001041D01*
X020041Y000992D01*
X020013Y000945D01*
X019982Y000900D01*
X019947Y000857D01*
X019910Y000817D01*
X019870Y000780D01*
X019827Y000745D01*
X019782Y000714D01*
X019735Y000686D01*
X019686Y000661D01*
X019635Y000640D01*
X019583Y000623D01*
X019530Y000610D01*
X019476Y000600D01*
X019422Y000594D01*
X019367Y000592D01*
X019312Y000594D01*
X019258Y000600D01*
X019204Y000610D01*
X019151Y000623D01*
X019099Y000640D01*
X019048Y000661D01*
X018999Y000686D01*
X018952Y000714D01*
X018907Y000745D01*
X018864Y000780D01*
X018824Y000817D01*
X018787Y000857D01*
X018752Y000900D01*
X018721Y000945D01*
X018693Y000992D01*
X018668Y001041D01*
X018647Y001092D01*
X018630Y001144D01*
X018617Y001197D01*
X018607Y001251D01*
X018601Y001305D01*
X018599Y001360D01*
X020592Y001147D02*
X020598Y001247D01*
X020608Y001346D01*
X020622Y001444D01*
X020639Y001542D01*
X020660Y001640D01*
X020685Y001736D01*
X020714Y001831D01*
X020746Y001926D01*
X020781Y002019D01*
X020821Y002110D01*
X020863Y002200D01*
X020909Y002288D01*
X020959Y002375D01*
X021011Y002459D01*
X021067Y002542D01*
X021126Y002622D01*
X021188Y002700D01*
X021253Y002775D01*
X021320Y002848D01*
X021391Y002919D01*
X021464Y002986D01*
X021539Y003051D01*
X021617Y003113D01*
X021697Y003172D01*
X021780Y003228D01*
X021864Y003280D01*
X021951Y003330D01*
X022039Y003376D01*
X022129Y003418D01*
X022220Y003458D01*
X022313Y003493D01*
X022408Y003525D01*
X022503Y003554D01*
X022599Y003579D01*
X022697Y003600D01*
X022795Y003617D01*
X022893Y003631D01*
X022992Y003641D01*
X023092Y003647D01*
X023091Y003648D02*
X023146Y003652D01*
X023200Y003660D01*
X023253Y003672D01*
X023306Y003687D01*
X023357Y003706D01*
X023407Y003729D01*
X023455Y003754D01*
X023501Y003784D01*
X023545Y003816D01*
X023587Y003851D01*
X023626Y003889D01*
X023663Y003930D01*
X023696Y003973D01*
X023727Y004019D01*
X023754Y004066D01*
X023778Y004115D01*
X023798Y004166D01*
X023815Y004218D01*
X023828Y004271D01*
X023837Y004325D01*
X023843Y004379D01*
X023845Y004434D01*
X023845Y012459D01*
X023843Y012514D01*
X023837Y012568D01*
X023828Y012622D01*
X023815Y012675D01*
X023798Y012727D01*
X023778Y012778D01*
X023754Y012827D01*
X023727Y012874D01*
X023696Y012920D01*
X023663Y012963D01*
X023626Y013004D01*
X023587Y013042D01*
X023545Y013077D01*
X023501Y013109D01*
X023455Y013139D01*
X023407Y013164D01*
X023357Y013187D01*
X023306Y013206D01*
X023253Y013221D01*
X023200Y013233D01*
X023146Y013241D01*
X023091Y013245D01*
X018599Y015533D02*
X018601Y015588D01*
X018607Y015642D01*
X018617Y015696D01*
X018630Y015749D01*
X018647Y015801D01*
X018668Y015852D01*
X018693Y015901D01*
X018721Y015948D01*
X018752Y015993D01*
X018787Y016036D01*
X018824Y016076D01*
X018864Y016113D01*
X018907Y016148D01*
X018952Y016179D01*
X018999Y016207D01*
X019048Y016232D01*
X019099Y016253D01*
X019151Y016270D01*
X019204Y016283D01*
X019258Y016293D01*
X019312Y016299D01*
X019367Y016301D01*
X019422Y016299D01*
X019476Y016293D01*
X019530Y016283D01*
X019583Y016270D01*
X019635Y016253D01*
X019686Y016232D01*
X019735Y016207D01*
X019782Y016179D01*
X019827Y016148D01*
X019870Y016113D01*
X019910Y016076D01*
X019947Y016036D01*
X019982Y015993D01*
X020013Y015948D01*
X020041Y015901D01*
X020066Y015852D01*
X020087Y015801D01*
X020104Y015749D01*
X020117Y015696D01*
X020127Y015642D01*
X020133Y015588D01*
X020135Y015533D01*
X020133Y015478D01*
X020127Y015424D01*
X020117Y015370D01*
X020104Y015317D01*
X020087Y015265D01*
X020066Y015214D01*
X020041Y015165D01*
X020013Y015118D01*
X019982Y015073D01*
X019947Y015030D01*
X019910Y014990D01*
X019870Y014953D01*
X019827Y014918D01*
X019782Y014887D01*
X019735Y014859D01*
X019686Y014834D01*
X019635Y014813D01*
X019583Y014796D01*
X019530Y014783D01*
X019476Y014773D01*
X019422Y014767D01*
X019367Y014765D01*
X019312Y014767D01*
X019258Y014773D01*
X019204Y014783D01*
X019151Y014796D01*
X019099Y014813D01*
X019048Y014834D01*
X018999Y014859D01*
X018952Y014887D01*
X018907Y014918D01*
X018864Y014953D01*
X018824Y014990D01*
X018787Y015030D01*
X018752Y015073D01*
X018721Y015118D01*
X018693Y015165D01*
X018668Y015214D01*
X018647Y015265D01*
X018630Y015317D01*
X018617Y015370D01*
X018607Y015424D01*
X018601Y015478D01*
X018599Y015533D01*
X019805Y016499D02*
X019860Y016497D01*
X019914Y016491D01*
X019968Y016482D01*
X020021Y016469D01*
X020073Y016452D01*
X020124Y016432D01*
X020173Y016408D01*
X020220Y016381D01*
X020266Y016350D01*
X020309Y016317D01*
X020350Y016280D01*
X020388Y016241D01*
X020423Y016199D01*
X020455Y016155D01*
X020485Y016109D01*
X020510Y016061D01*
X020533Y016011D01*
X020552Y015960D01*
X020567Y015907D01*
X020579Y015854D01*
X020587Y015800D01*
X020591Y015745D01*
X019805Y016500D02*
X005937Y016500D01*
X005937Y016499D02*
X005882Y016497D01*
X005828Y016491D01*
X005774Y016482D01*
X005721Y016469D01*
X005669Y016452D01*
X005618Y016432D01*
X005569Y016408D01*
X005522Y016381D01*
X005476Y016350D01*
X005433Y016317D01*
X005392Y016280D01*
X005354Y016241D01*
X005319Y016199D01*
X005287Y016155D01*
X005257Y016109D01*
X005232Y016061D01*
X005209Y016011D01*
X005190Y015960D01*
X005175Y015907D01*
X005163Y015854D01*
X005155Y015800D01*
X005151Y015745D01*
X005607Y015533D02*
X005609Y015588D01*
X005615Y015642D01*
X005625Y015696D01*
X005638Y015749D01*
X005655Y015801D01*
X005676Y015852D01*
X005701Y015901D01*
X005729Y015948D01*
X005760Y015993D01*
X005795Y016036D01*
X005832Y016076D01*
X005872Y016113D01*
X005915Y016148D01*
X005960Y016179D01*
X006007Y016207D01*
X006056Y016232D01*
X006107Y016253D01*
X006159Y016270D01*
X006212Y016283D01*
X006266Y016293D01*
X006320Y016299D01*
X006375Y016301D01*
X006430Y016299D01*
X006484Y016293D01*
X006538Y016283D01*
X006591Y016270D01*
X006643Y016253D01*
X006694Y016232D01*
X006743Y016207D01*
X006790Y016179D01*
X006835Y016148D01*
X006878Y016113D01*
X006918Y016076D01*
X006955Y016036D01*
X006990Y015993D01*
X007021Y015948D01*
X007049Y015901D01*
X007074Y015852D01*
X007095Y015801D01*
X007112Y015749D01*
X007125Y015696D01*
X007135Y015642D01*
X007141Y015588D01*
X007143Y015533D01*
X007141Y015478D01*
X007135Y015424D01*
X007125Y015370D01*
X007112Y015317D01*
X007095Y015265D01*
X007074Y015214D01*
X007049Y015165D01*
X007021Y015118D01*
X006990Y015073D01*
X006955Y015030D01*
X006918Y014990D01*
X006878Y014953D01*
X006835Y014918D01*
X006790Y014887D01*
X006743Y014859D01*
X006694Y014834D01*
X006643Y014813D01*
X006591Y014796D01*
X006538Y014783D01*
X006484Y014773D01*
X006430Y014767D01*
X006375Y014765D01*
X006320Y014767D01*
X006266Y014773D01*
X006212Y014783D01*
X006159Y014796D01*
X006107Y014813D01*
X006056Y014834D01*
X006007Y014859D01*
X005960Y014887D01*
X005915Y014918D01*
X005872Y014953D01*
X005832Y014990D01*
X005795Y015030D01*
X005760Y015073D01*
X005729Y015118D01*
X005701Y015165D01*
X005676Y015214D01*
X005655Y015265D01*
X005638Y015317D01*
X005625Y015370D01*
X005615Y015424D01*
X005609Y015478D01*
X005607Y015533D01*
X005150Y015746D02*
X005144Y015646D01*
X005134Y015547D01*
X005120Y015449D01*
X005103Y015351D01*
X005082Y015253D01*
X005057Y015157D01*
X005028Y015062D01*
X004996Y014967D01*
X004961Y014874D01*
X004921Y014783D01*
X004879Y014693D01*
X004833Y014605D01*
X004783Y014518D01*
X004731Y014434D01*
X004675Y014351D01*
X004616Y014271D01*
X004554Y014193D01*
X004489Y014118D01*
X004422Y014045D01*
X004351Y013974D01*
X004278Y013907D01*
X004203Y013842D01*
X004125Y013780D01*
X004045Y013721D01*
X003962Y013665D01*
X003878Y013613D01*
X003791Y013563D01*
X003703Y013517D01*
X003613Y013475D01*
X003522Y013435D01*
X003429Y013400D01*
X003334Y013368D01*
X003239Y013339D01*
X003143Y013314D01*
X003045Y013293D01*
X002947Y013276D01*
X002849Y013262D01*
X002750Y013252D01*
X002650Y013246D01*
X002651Y013245D02*
X002596Y013241D01*
X002542Y013233D01*
X002489Y013221D01*
X002436Y013206D01*
X002385Y013187D01*
X002335Y013164D01*
X002287Y013139D01*
X002241Y013109D01*
X002197Y013077D01*
X002155Y013042D01*
X002116Y013004D01*
X002079Y012963D01*
X002046Y012920D01*
X002015Y012874D01*
X001988Y012827D01*
X001964Y012778D01*
X001944Y012727D01*
X001927Y012675D01*
X001914Y012622D01*
X001905Y012568D01*
X001899Y012514D01*
X001897Y012459D01*
X001897Y004434D01*
X001899Y004379D01*
X001905Y004325D01*
X001914Y004271D01*
X001927Y004218D01*
X001944Y004166D01*
X001964Y004115D01*
X001988Y004066D01*
X002015Y004019D01*
X002046Y003973D01*
X002079Y003930D01*
X002116Y003889D01*
X002155Y003851D01*
X002197Y003816D01*
X002241Y003784D01*
X002287Y003754D01*
X002335Y003729D01*
X002385Y003706D01*
X002436Y003687D01*
X002489Y003672D01*
X002542Y003660D01*
X002596Y003652D01*
X002651Y003648D01*
X005607Y001360D02*
X005609Y001415D01*
X005615Y001469D01*
X005625Y001523D01*
X005638Y001576D01*
X005655Y001628D01*
X005676Y001679D01*
X005701Y001728D01*
X005729Y001775D01*
X005760Y001820D01*
X005795Y001863D01*
X005832Y001903D01*
X005872Y001940D01*
X005915Y001975D01*
X005960Y002006D01*
X006007Y002034D01*
X006056Y002059D01*
X006107Y002080D01*
X006159Y002097D01*
X006212Y002110D01*
X006266Y002120D01*
X006320Y002126D01*
X006375Y002128D01*
X006430Y002126D01*
X006484Y002120D01*
X006538Y002110D01*
X006591Y002097D01*
X006643Y002080D01*
X006694Y002059D01*
X006743Y002034D01*
X006790Y002006D01*
X006835Y001975D01*
X006878Y001940D01*
X006918Y001903D01*
X006955Y001863D01*
X006990Y001820D01*
X007021Y001775D01*
X007049Y001728D01*
X007074Y001679D01*
X007095Y001628D01*
X007112Y001576D01*
X007125Y001523D01*
X007135Y001469D01*
X007141Y001415D01*
X007143Y001360D01*
X007141Y001305D01*
X007135Y001251D01*
X007125Y001197D01*
X007112Y001144D01*
X007095Y001092D01*
X007074Y001041D01*
X007049Y000992D01*
X007021Y000945D01*
X006990Y000900D01*
X006955Y000857D01*
X006918Y000817D01*
X006878Y000780D01*
X006835Y000745D01*
X006790Y000714D01*
X006743Y000686D01*
X006694Y000661D01*
X006643Y000640D01*
X006591Y000623D01*
X006538Y000610D01*
X006484Y000600D01*
X006430Y000594D01*
X006375Y000592D01*
X006320Y000594D01*
X006266Y000600D01*
X006212Y000610D01*
X006159Y000623D01*
X006107Y000640D01*
X006056Y000661D01*
X006007Y000686D01*
X005960Y000714D01*
X005915Y000745D01*
X005872Y000780D01*
X005832Y000817D01*
X005795Y000857D01*
X005760Y000900D01*
X005729Y000945D01*
X005701Y000992D01*
X005676Y001041D01*
X005655Y001092D01*
X005638Y001144D01*
X005625Y001197D01*
X005615Y001251D01*
X005609Y001305D01*
X005607Y001360D01*
X002611Y006196D02*
X002613Y006246D01*
X002619Y006296D01*
X002629Y006345D01*
X002642Y006394D01*
X002660Y006441D01*
X002681Y006487D01*
X002705Y006530D01*
X002733Y006572D01*
X002764Y006612D01*
X002798Y006649D01*
X002835Y006683D01*
X002875Y006714D01*
X002917Y006742D01*
X002960Y006766D01*
X003006Y006787D01*
X003053Y006805D01*
X003102Y006818D01*
X003151Y006828D01*
X003201Y006834D01*
X003251Y006836D01*
X003301Y006834D01*
X003351Y006828D01*
X003400Y006818D01*
X003449Y006805D01*
X003496Y006787D01*
X003542Y006766D01*
X003585Y006742D01*
X003627Y006714D01*
X003667Y006683D01*
X003704Y006649D01*
X003738Y006612D01*
X003769Y006572D01*
X003797Y006530D01*
X003821Y006487D01*
X003842Y006441D01*
X003860Y006394D01*
X003873Y006345D01*
X003883Y006296D01*
X003889Y006246D01*
X003891Y006196D01*
X003889Y006146D01*
X003883Y006096D01*
X003873Y006047D01*
X003860Y005998D01*
X003842Y005951D01*
X003821Y005905D01*
X003797Y005862D01*
X003769Y005820D01*
X003738Y005780D01*
X003704Y005743D01*
X003667Y005709D01*
X003627Y005678D01*
X003585Y005650D01*
X003542Y005626D01*
X003496Y005605D01*
X003449Y005587D01*
X003400Y005574D01*
X003351Y005564D01*
X003301Y005558D01*
X003251Y005556D01*
X003201Y005558D01*
X003151Y005564D01*
X003102Y005574D01*
X003053Y005587D01*
X003006Y005605D01*
X002960Y005626D01*
X002917Y005650D01*
X002875Y005678D01*
X002835Y005709D01*
X002798Y005743D01*
X002764Y005780D01*
X002733Y005820D01*
X002705Y005862D01*
X002681Y005905D01*
X002660Y005951D01*
X002642Y005998D01*
X002629Y006047D01*
X002619Y006096D01*
X002613Y006146D01*
X002611Y006196D01*
X002611Y010696D02*
X002613Y010746D01*
X002619Y010796D01*
X002629Y010845D01*
X002642Y010894D01*
X002660Y010941D01*
X002681Y010987D01*
X002705Y011030D01*
X002733Y011072D01*
X002764Y011112D01*
X002798Y011149D01*
X002835Y011183D01*
X002875Y011214D01*
X002917Y011242D01*
X002960Y011266D01*
X003006Y011287D01*
X003053Y011305D01*
X003102Y011318D01*
X003151Y011328D01*
X003201Y011334D01*
X003251Y011336D01*
X003301Y011334D01*
X003351Y011328D01*
X003400Y011318D01*
X003449Y011305D01*
X003496Y011287D01*
X003542Y011266D01*
X003585Y011242D01*
X003627Y011214D01*
X003667Y011183D01*
X003704Y011149D01*
X003738Y011112D01*
X003769Y011072D01*
X003797Y011030D01*
X003821Y010987D01*
X003842Y010941D01*
X003860Y010894D01*
X003873Y010845D01*
X003883Y010796D01*
X003889Y010746D01*
X003891Y010696D01*
X003889Y010646D01*
X003883Y010596D01*
X003873Y010547D01*
X003860Y010498D01*
X003842Y010451D01*
X003821Y010405D01*
X003797Y010362D01*
X003769Y010320D01*
X003738Y010280D01*
X003704Y010243D01*
X003667Y010209D01*
X003627Y010178D01*
X003585Y010150D01*
X003542Y010126D01*
X003496Y010105D01*
X003449Y010087D01*
X003400Y010074D01*
X003351Y010064D01*
X003301Y010058D01*
X003251Y010056D01*
X003201Y010058D01*
X003151Y010064D01*
X003102Y010074D01*
X003053Y010087D01*
X003006Y010105D01*
X002960Y010126D01*
X002917Y010150D01*
X002875Y010178D01*
X002835Y010209D01*
X002798Y010243D01*
X002764Y010280D01*
X002733Y010320D01*
X002705Y010362D01*
X002681Y010405D01*
X002660Y010451D01*
X002642Y010498D01*
X002629Y010547D01*
X002619Y010596D01*
X002613Y010646D01*
X002611Y010696D01*
X021851Y010696D02*
X021853Y010746D01*
X021859Y010796D01*
X021869Y010845D01*
X021882Y010894D01*
X021900Y010941D01*
X021921Y010987D01*
X021945Y011030D01*
X021973Y011072D01*
X022004Y011112D01*
X022038Y011149D01*
X022075Y011183D01*
X022115Y011214D01*
X022157Y011242D01*
X022200Y011266D01*
X022246Y011287D01*
X022293Y011305D01*
X022342Y011318D01*
X022391Y011328D01*
X022441Y011334D01*
X022491Y011336D01*
X022541Y011334D01*
X022591Y011328D01*
X022640Y011318D01*
X022689Y011305D01*
X022736Y011287D01*
X022782Y011266D01*
X022825Y011242D01*
X022867Y011214D01*
X022907Y011183D01*
X022944Y011149D01*
X022978Y011112D01*
X023009Y011072D01*
X023037Y011030D01*
X023061Y010987D01*
X023082Y010941D01*
X023100Y010894D01*
X023113Y010845D01*
X023123Y010796D01*
X023129Y010746D01*
X023131Y010696D01*
X023129Y010646D01*
X023123Y010596D01*
X023113Y010547D01*
X023100Y010498D01*
X023082Y010451D01*
X023061Y010405D01*
X023037Y010362D01*
X023009Y010320D01*
X022978Y010280D01*
X022944Y010243D01*
X022907Y010209D01*
X022867Y010178D01*
X022825Y010150D01*
X022782Y010126D01*
X022736Y010105D01*
X022689Y010087D01*
X022640Y010074D01*
X022591Y010064D01*
X022541Y010058D01*
X022491Y010056D01*
X022441Y010058D01*
X022391Y010064D01*
X022342Y010074D01*
X022293Y010087D01*
X022246Y010105D01*
X022200Y010126D01*
X022157Y010150D01*
X022115Y010178D01*
X022075Y010209D01*
X022038Y010243D01*
X022004Y010280D01*
X021973Y010320D01*
X021945Y010362D01*
X021921Y010405D01*
X021900Y010451D01*
X021882Y010498D01*
X021869Y010547D01*
X021859Y010596D01*
X021853Y010646D01*
X021851Y010696D01*
X021851Y006196D02*
X021853Y006246D01*
X021859Y006296D01*
X021869Y006345D01*
X021882Y006394D01*
X021900Y006441D01*
X021921Y006487D01*
X021945Y006530D01*
X021973Y006572D01*
X022004Y006612D01*
X022038Y006649D01*
X022075Y006683D01*
X022115Y006714D01*
X022157Y006742D01*
X022200Y006766D01*
X022246Y006787D01*
X022293Y006805D01*
X022342Y006818D01*
X022391Y006828D01*
X022441Y006834D01*
X022491Y006836D01*
X022541Y006834D01*
X022591Y006828D01*
X022640Y006818D01*
X022689Y006805D01*
X022736Y006787D01*
X022782Y006766D01*
X022825Y006742D01*
X022867Y006714D01*
X022907Y006683D01*
X022944Y006649D01*
X022978Y006612D01*
X023009Y006572D01*
X023037Y006530D01*
X023061Y006487D01*
X023082Y006441D01*
X023100Y006394D01*
X023113Y006345D01*
X023123Y006296D01*
X023129Y006246D01*
X023131Y006196D01*
X023129Y006146D01*
X023123Y006096D01*
X023113Y006047D01*
X023100Y005998D01*
X023082Y005951D01*
X023061Y005905D01*
X023037Y005862D01*
X023009Y005820D01*
X022978Y005780D01*
X022944Y005743D01*
X022907Y005709D01*
X022867Y005678D01*
X022825Y005650D01*
X022782Y005626D01*
X022736Y005605D01*
X022689Y005587D01*
X022640Y005574D01*
X022591Y005564D01*
X022541Y005558D01*
X022491Y005556D01*
X022441Y005558D01*
X022391Y005564D01*
X022342Y005574D01*
X022293Y005587D01*
X022246Y005605D01*
X022200Y005626D01*
X022157Y005650D01*
X022115Y005678D01*
X022075Y005709D01*
X022038Y005743D01*
X022004Y005780D01*
X021973Y005820D01*
X021945Y005862D01*
X021921Y005905D01*
X021900Y005951D01*
X021882Y005998D01*
X021869Y006047D01*
X021859Y006096D01*
X021853Y006146D01*
X021851Y006196D01*
X023092Y013246D02*
X022992Y013252D01*
X022893Y013262D01*
X022795Y013276D01*
X022697Y013293D01*
X022599Y013314D01*
X022503Y013339D01*
X022408Y013368D01*
X022313Y013400D01*
X022220Y013435D01*
X022129Y013475D01*
X022039Y013517D01*
X021951Y013563D01*
X021864Y013613D01*
X021780Y013665D01*
X021697Y013721D01*
X021617Y013780D01*
X021539Y013842D01*
X021464Y013907D01*
X021391Y013974D01*
X021320Y014045D01*
X021253Y014118D01*
X021188Y014193D01*
X021126Y014271D01*
X021067Y014351D01*
X021011Y014434D01*
X020959Y014518D01*
X020909Y014605D01*
X020863Y014693D01*
X020821Y014783D01*
X020781Y014874D01*
X020746Y014967D01*
X020714Y015062D01*
X020685Y015157D01*
X020660Y015253D01*
X020639Y015351D01*
X020622Y015449D01*
X020608Y015547D01*
X020598Y015646D01*
X020592Y015746D01*
D11*
X015981Y001821D02*
X015751Y001821D01*
X015674Y001744D01*
X015674Y001590D01*
X015751Y001514D01*
X015981Y001514D01*
X015981Y001360D02*
X015981Y001821D01*
X015521Y001744D02*
X015521Y001437D01*
X015444Y001360D01*
X015290Y001360D01*
X015214Y001437D01*
X015214Y001744D01*
X015290Y001821D01*
X015444Y001821D01*
X015521Y001744D01*
X015060Y001744D02*
X015060Y001667D01*
X014983Y001590D01*
X014830Y001590D01*
X014753Y001514D01*
X014753Y001437D01*
X014830Y001360D01*
X014983Y001360D01*
X015060Y001437D01*
X015060Y001171D02*
X015214Y001171D01*
X015290Y001094D01*
X015290Y001017D01*
X015214Y000941D01*
X015060Y000941D01*
X014983Y000864D01*
X014983Y000787D01*
X015060Y000711D01*
X015214Y000711D01*
X015290Y000787D01*
X015444Y000787D02*
X015444Y000711D01*
X015521Y000711D01*
X015521Y000787D01*
X015444Y000787D01*
X015674Y000711D02*
X015828Y000864D01*
X015751Y000864D02*
X015981Y000864D01*
X015981Y000711D02*
X015981Y001171D01*
X015751Y001171D01*
X015674Y001094D01*
X015674Y000941D01*
X015751Y000864D01*
X015060Y001171D02*
X014983Y001094D01*
X014830Y000787D02*
X014753Y000787D01*
X014753Y000711D01*
X014830Y000711D01*
X014830Y000787D01*
X014139Y000711D02*
X013832Y000711D01*
X013679Y000711D02*
X013372Y001171D01*
X013219Y000941D02*
X012988Y000941D01*
X012912Y000864D01*
X012912Y000787D01*
X012988Y000711D01*
X013142Y000711D01*
X013219Y000787D01*
X013219Y000941D01*
X013065Y001094D01*
X012912Y001171D01*
X012988Y001360D02*
X012988Y001821D01*
X012758Y001821D01*
X012682Y001744D01*
X012682Y001590D01*
X012758Y001514D01*
X012988Y001514D01*
X013142Y001437D02*
X013142Y001360D01*
X013219Y001360D01*
X013219Y001437D01*
X013142Y001437D01*
X013372Y001360D02*
X013372Y001821D01*
X013679Y001821D02*
X013372Y001360D01*
X013679Y001360D02*
X013679Y001821D01*
X013832Y001744D02*
X013909Y001821D01*
X014063Y001821D01*
X014139Y001744D01*
X014139Y001437D01*
X014063Y001360D01*
X013909Y001360D01*
X013832Y001437D01*
X013832Y001744D01*
X014293Y001744D02*
X014370Y001821D01*
X014523Y001821D01*
X014600Y001744D01*
X014600Y001437D01*
X014523Y001360D01*
X014370Y001360D01*
X014293Y001437D01*
X013986Y001171D02*
X013986Y000711D01*
X014139Y001017D02*
X013986Y001171D01*
X014753Y001744D02*
X014830Y001821D01*
X014983Y001821D01*
X015060Y001744D01*
X012758Y000711D02*
X012451Y001171D01*
X012298Y001017D02*
X012144Y001171D01*
X012144Y000711D01*
X011991Y000711D02*
X012298Y000711D01*
X011837Y000787D02*
X011761Y000711D01*
X011607Y000711D01*
X011531Y000787D01*
X011531Y000941D01*
X011607Y001017D01*
X011684Y001017D01*
X011837Y000941D01*
X011837Y001171D01*
X011531Y001171D01*
X011531Y001360D02*
X011607Y001360D01*
X011607Y001437D01*
X011531Y001437D01*
X011531Y001360D01*
X011761Y001437D02*
X011837Y001360D01*
X012068Y001360D01*
X012068Y001821D01*
X011837Y001821D01*
X011761Y001744D01*
X011761Y001667D01*
X011837Y001590D01*
X012068Y001590D01*
X012221Y001437D02*
X012298Y001360D01*
X012451Y001360D01*
X012528Y001437D01*
X012528Y001744D01*
X012451Y001821D01*
X012298Y001821D01*
X012221Y001744D01*
X011837Y001590D02*
X011761Y001514D01*
X011761Y001437D01*
X011377Y001667D02*
X011224Y001360D01*
X011070Y001667D01*
X010917Y001667D02*
X010763Y001821D01*
X010763Y001360D01*
X010610Y001360D02*
X010917Y001360D01*
X010456Y001360D02*
X010380Y001360D01*
X010380Y001437D01*
X010456Y001437D01*
X010456Y001360D01*
X010226Y001360D02*
X009919Y001667D01*
X009919Y001744D01*
X009996Y001821D01*
X010149Y001821D01*
X010226Y001744D01*
X010226Y001360D02*
X009919Y001360D01*
D12*
X015311Y002760D02*
X016731Y002760D01*
X016731Y004664D02*
X015311Y004664D01*
X012757Y007538D02*
X011022Y007539D01*
X011022Y010543D01*
X012757Y010541D01*
X012757Y007538D01*
X011227Y007885D02*
X011229Y007911D01*
X011235Y007937D01*
X011244Y007961D01*
X011257Y007984D01*
X011273Y008005D01*
X011292Y008023D01*
X011313Y008039D01*
X011337Y008051D01*
X011361Y008059D01*
X011387Y008064D01*
X011414Y008065D01*
X011440Y008062D01*
X011465Y008055D01*
X011489Y008045D01*
X011512Y008031D01*
X011532Y008015D01*
X011549Y007995D01*
X011564Y007973D01*
X011575Y007949D01*
X011583Y007924D01*
X011587Y007898D01*
X011587Y007872D01*
X011583Y007846D01*
X011575Y007821D01*
X011564Y007797D01*
X011549Y007775D01*
X011532Y007755D01*
X011512Y007739D01*
X011489Y007725D01*
X011465Y007715D01*
X011440Y007708D01*
X011414Y007705D01*
X011387Y007706D01*
X011361Y007711D01*
X011337Y007719D01*
X011313Y007731D01*
X011292Y007747D01*
X011273Y007765D01*
X011257Y007786D01*
X011244Y007809D01*
X011235Y007833D01*
X011229Y007859D01*
X011227Y007885D01*
X018452Y011972D02*
X020200Y011973D01*
X020200Y013953D01*
X018452Y013952D01*
X018452Y011972D01*
X018664Y012322D02*
X018666Y012348D01*
X018672Y012374D01*
X018681Y012398D01*
X018694Y012421D01*
X018710Y012442D01*
X018729Y012460D01*
X018750Y012476D01*
X018774Y012488D01*
X018798Y012496D01*
X018824Y012501D01*
X018851Y012502D01*
X018877Y012499D01*
X018902Y012492D01*
X018926Y012482D01*
X018949Y012468D01*
X018969Y012452D01*
X018986Y012432D01*
X019001Y012410D01*
X019012Y012386D01*
X019020Y012361D01*
X019024Y012335D01*
X019024Y012309D01*
X019020Y012283D01*
X019012Y012258D01*
X019001Y012234D01*
X018986Y012212D01*
X018969Y012192D01*
X018949Y012176D01*
X018926Y012162D01*
X018902Y012152D01*
X018877Y012145D01*
X018851Y012142D01*
X018824Y012143D01*
X018798Y012148D01*
X018774Y012156D01*
X018750Y012168D01*
X018729Y012184D01*
X018710Y012202D01*
X018694Y012223D01*
X018681Y012246D01*
X018672Y012270D01*
X018666Y012296D01*
X018664Y012322D01*
D13*
X018515Y012062D02*
X020133Y012062D01*
X020133Y013862D01*
X018515Y013862D01*
X018515Y012062D01*
X012696Y010449D02*
X012696Y007625D01*
X011078Y007625D01*
X011078Y010449D01*
X012696Y010449D01*
D14*
X012337Y010765D02*
X012262Y010690D01*
X012111Y010690D01*
X012036Y010765D01*
X012036Y011140D01*
X011876Y010915D02*
X011651Y011140D01*
X011651Y010690D01*
X011576Y010915D02*
X011876Y010915D01*
X012337Y010765D02*
X012337Y011140D01*
X014046Y012518D02*
X014121Y012443D01*
X014271Y012443D01*
X014346Y012518D01*
X014346Y012669D02*
X014196Y012744D01*
X014121Y012744D01*
X014046Y012669D01*
X014046Y012518D01*
X014346Y012669D02*
X014346Y012894D01*
X014046Y012894D01*
X014506Y012819D02*
X014506Y012669D01*
X014581Y012594D01*
X014806Y012594D01*
X014656Y012594D02*
X014506Y012443D01*
X014806Y012443D02*
X014806Y012894D01*
X014581Y012894D01*
X014506Y012819D01*
X015412Y012032D02*
X015487Y012107D01*
X015637Y012107D01*
X015712Y012032D01*
X015872Y012032D02*
X015947Y012107D01*
X016097Y012107D01*
X016172Y012032D01*
X016172Y011732D01*
X016097Y011656D01*
X015947Y011656D01*
X015872Y011732D01*
X015712Y011656D02*
X015412Y011957D01*
X015412Y012032D01*
X015412Y011656D02*
X015712Y011656D01*
X016522Y012374D02*
X016597Y012299D01*
X016897Y012299D01*
X016972Y012374D01*
X016972Y012524D01*
X016897Y012599D01*
X016822Y012759D02*
X016972Y012909D01*
X016522Y012909D01*
X016522Y012759D02*
X016522Y013059D01*
X016597Y012599D02*
X016522Y012524D01*
X016522Y012374D01*
X014705Y011386D02*
X014630Y011236D01*
X014480Y011085D01*
X014480Y011311D01*
X014404Y011386D01*
X014329Y011386D01*
X014254Y011311D01*
X014254Y011160D01*
X014329Y011085D01*
X014480Y011085D01*
X014480Y010925D02*
X014404Y010850D01*
X014404Y010625D01*
X014254Y010625D02*
X014705Y010625D01*
X014705Y010850D01*
X014630Y010925D01*
X014480Y010925D01*
X014404Y010775D02*
X014254Y010925D01*
X011414Y013092D02*
X011367Y013092D01*
X011414Y013092D02*
X011414Y014037D01*
X011368Y014037D01*
X011488Y014279D02*
X011488Y014729D01*
X011263Y014729D01*
X011188Y014654D01*
X011188Y014504D01*
X011263Y014429D01*
X011488Y014429D01*
X011338Y014429D02*
X011188Y014279D01*
X011027Y014279D02*
X011027Y014354D01*
X010952Y014354D01*
X010952Y014279D01*
X011027Y014279D01*
X010797Y014279D02*
X010572Y014279D01*
X010497Y014354D01*
X010497Y014654D01*
X010572Y014729D01*
X010797Y014729D01*
X010797Y014279D01*
X010337Y014279D02*
X010037Y014579D01*
X010037Y014654D01*
X010112Y014729D01*
X010262Y014729D01*
X010337Y014654D01*
X010337Y014279D02*
X010037Y014279D01*
X009876Y014279D02*
X009876Y014579D01*
X009726Y014729D01*
X009576Y014579D01*
X009576Y014279D01*
X009918Y014037D02*
X009918Y013092D01*
X009965Y013092D01*
X009965Y014037D02*
X009918Y014037D01*
X009876Y014504D02*
X009576Y014504D01*
X007511Y014453D02*
X007511Y014003D01*
X007511Y014153D02*
X007286Y014153D01*
X007211Y014228D01*
X007211Y014378D01*
X007286Y014453D01*
X007511Y014453D01*
X007361Y014153D02*
X007211Y014003D01*
X007051Y014003D02*
X006976Y014003D01*
X006976Y014078D01*
X007051Y014078D01*
X007051Y014003D01*
X006821Y014003D02*
X006596Y014003D01*
X006521Y014078D01*
X006521Y014378D01*
X006596Y014453D01*
X006821Y014453D01*
X006821Y014003D01*
X006360Y014003D02*
X006060Y014303D01*
X006060Y014378D01*
X006135Y014453D01*
X006285Y014453D01*
X006360Y014378D01*
X006360Y014003D02*
X006060Y014003D01*
X005900Y014003D02*
X005675Y014003D01*
X005600Y014078D01*
X005600Y014153D01*
X005675Y014228D01*
X005900Y014228D01*
X005900Y014003D02*
X005900Y014453D01*
X005675Y014453D01*
X005600Y014378D01*
X005600Y014303D01*
X005675Y014228D01*
X005824Y013801D02*
X005824Y012856D01*
X005870Y012856D01*
X005870Y013800D02*
X005824Y013801D01*
X007273Y013801D02*
X007320Y013801D01*
X007320Y012856D01*
X007272Y012856D01*
X007251Y011447D02*
X007250Y010437D01*
X007251Y011446D02*
X000125Y011446D01*
X000125Y005446D01*
X007251Y005446D01*
X007251Y005447D02*
X007251Y006450D01*
X007084Y004982D02*
X007084Y004037D01*
X007036Y004037D01*
X007019Y003784D02*
X006794Y003784D01*
X006719Y003709D01*
X006719Y003559D01*
X006794Y003484D01*
X007019Y003484D01*
X006869Y003484D02*
X006719Y003334D01*
X006559Y003334D02*
X006559Y003409D01*
X006484Y003409D01*
X006484Y003334D01*
X006559Y003334D01*
X006329Y003334D02*
X006104Y003334D01*
X006028Y003409D01*
X006028Y003709D01*
X006104Y003784D01*
X006329Y003784D01*
X006329Y003334D01*
X005868Y003334D02*
X005568Y003634D01*
X005568Y003709D01*
X005643Y003784D01*
X005793Y003784D01*
X005868Y003709D01*
X005634Y004037D02*
X005588Y004037D01*
X005588Y004982D01*
X005634Y004982D01*
X004285Y004879D02*
X004210Y004804D01*
X004135Y004804D01*
X004060Y004879D01*
X004060Y005254D01*
X004135Y005254D02*
X003985Y005254D01*
X003825Y005179D02*
X003750Y005254D01*
X003600Y005254D01*
X003525Y005179D01*
X003525Y005104D01*
X003825Y004804D01*
X003525Y004804D01*
X005108Y003709D02*
X005183Y003784D01*
X005333Y003784D01*
X005408Y003709D01*
X005408Y003409D01*
X005333Y003334D01*
X005183Y003334D01*
X005108Y003409D01*
X005568Y003334D02*
X005868Y003334D01*
X007019Y003334D02*
X007019Y003784D01*
X007037Y004982D02*
X007084Y004982D01*
X009360Y004536D02*
X009360Y004235D01*
X009435Y004160D01*
X009660Y004160D01*
X009660Y004611D01*
X009435Y004611D01*
X009360Y004536D01*
X009820Y004536D02*
X009895Y004611D01*
X010045Y004611D01*
X010120Y004536D01*
X010280Y004536D02*
X010355Y004611D01*
X010581Y004611D01*
X010581Y004160D01*
X010355Y004160D01*
X010280Y004235D01*
X010280Y004536D01*
X010120Y004160D02*
X009820Y004461D01*
X009820Y004536D01*
X009820Y004160D02*
X010120Y004160D01*
X009847Y003919D02*
X009800Y003919D01*
X009800Y002974D01*
X009846Y002974D01*
X011248Y002974D02*
X011296Y002974D01*
X011296Y003919D01*
X011250Y003919D01*
X011271Y004160D02*
X011271Y004611D01*
X011046Y004611D01*
X010971Y004536D01*
X010971Y004386D01*
X011046Y004311D01*
X011271Y004311D01*
X011121Y004311D02*
X010971Y004160D01*
X010811Y004160D02*
X010811Y004235D01*
X010736Y004235D01*
X010736Y004160D01*
X010811Y004160D01*
X016042Y004974D02*
X016117Y004899D01*
X016267Y004899D01*
X016342Y004974D01*
X016503Y004974D02*
X016503Y005349D01*
X016342Y005274D02*
X016267Y005349D01*
X016117Y005349D01*
X016042Y005274D01*
X016042Y005199D01*
X016117Y005124D01*
X016042Y005049D01*
X016042Y004974D01*
X016117Y005124D02*
X016192Y005124D01*
X016503Y004974D02*
X016578Y004899D01*
X016728Y004899D01*
X016803Y004974D01*
X016803Y005349D01*
X018491Y005446D02*
X025617Y005446D01*
X025617Y011446D01*
X018491Y011446D01*
X018491Y010443D01*
X018875Y014083D02*
X019175Y014083D01*
X019025Y014083D02*
X019025Y014534D01*
X019175Y014384D01*
X019336Y014534D02*
X019336Y014158D01*
X019411Y014083D01*
X019561Y014083D01*
X019636Y014158D01*
X019636Y014534D01*
X018369Y014496D02*
X018144Y014496D01*
X018069Y014571D01*
X018069Y014721D01*
X018144Y014796D01*
X018369Y014796D01*
X018369Y014345D01*
X018219Y014496D02*
X018069Y014345D01*
X017909Y014345D02*
X017609Y014345D01*
X017759Y014345D02*
X017759Y014796D01*
X017909Y014646D01*
X015444Y014966D02*
X015219Y014966D01*
X015144Y015041D01*
X015144Y015116D01*
X015219Y015191D01*
X015444Y015191D01*
X015219Y015191D02*
X015144Y015266D01*
X015144Y015341D01*
X015219Y015416D01*
X015444Y015416D01*
X015444Y014966D01*
X014984Y014966D02*
X014759Y014966D01*
X014684Y015041D01*
X014684Y015341D01*
X014759Y015416D01*
X014984Y015416D01*
X014984Y014966D01*
X014524Y014966D02*
X014524Y015416D01*
X014374Y015266D01*
X014223Y015416D01*
X014223Y014966D01*
X018492Y006456D02*
X018491Y005446D01*
X019686Y005140D02*
X019761Y005215D01*
X019911Y005215D01*
X019986Y005140D01*
X019986Y004840D01*
X019911Y004765D01*
X019761Y004765D01*
X019686Y004840D01*
X019686Y004990D01*
X019836Y004990D01*
X020147Y004840D02*
X020147Y005140D01*
X020222Y005215D01*
X020372Y005215D01*
X020447Y005140D01*
X020447Y004840D01*
X020372Y004765D01*
X020222Y004765D01*
X020147Y004840D01*
X020607Y004765D02*
X020757Y004915D01*
X020682Y004915D02*
X020907Y004915D01*
X020907Y004765D02*
X020907Y005215D01*
X020682Y005215D01*
X020607Y005140D01*
X020607Y004990D01*
X020682Y004915D01*
X021067Y004990D02*
X021067Y005140D01*
X021142Y005215D01*
X021368Y005215D01*
X021368Y004765D01*
X021368Y004915D02*
X021142Y004915D01*
X021067Y004990D01*
X021528Y004990D02*
X021828Y004990D01*
X021988Y004765D02*
X022288Y004765D01*
X022138Y004765D02*
X022138Y005215D01*
X022288Y005065D01*
X022449Y005215D02*
X022599Y005215D01*
X022524Y005215D02*
X022524Y004840D01*
X022599Y004765D01*
X022674Y004765D01*
X022749Y004840D01*
D15*
X016324Y015052D03*
D16*
X016354Y004424D02*
X016356Y004439D01*
X016362Y004452D01*
X016371Y004464D01*
X016382Y004473D01*
X016396Y004479D01*
X016411Y004481D01*
X016426Y004479D01*
X016439Y004473D01*
X016451Y004464D01*
X016460Y004453D01*
X016466Y004439D01*
X016468Y004424D01*
X016466Y004409D01*
X016460Y004396D01*
X016451Y004384D01*
X016440Y004375D01*
X016426Y004369D01*
X016411Y004367D01*
X016396Y004369D01*
X016383Y004375D01*
X016371Y004384D01*
X016362Y004395D01*
X016356Y004409D01*
X016354Y004424D01*
M02*
