%
M48
M72
T01C0.0197
T02C0.0480
T03C0.1280
T04C0.1535
%
T01
X5351Y3624
X4662Y3958
X4879Y4490
X7162Y4549
X7989Y4234
X7832Y3486
X7832Y2718
X9446Y3368
X10036Y6537
X8934Y6694
X10056Y7698
X9623Y8072
X11198Y6576
X11966Y6498
X12910Y7285
X12399Y7462
X11985Y7876
X12340Y8289
X11631Y9214
X11985Y9746
X13147Y11281
X14013Y11891
X13816Y12561
X12960Y12511
X12714Y12029
X12005Y12738
X11257Y12462
X11906Y13663
X12044Y14352
X13678Y15257
X16513Y13880
X17379Y13939
X17320Y13407
X17182Y12856
X17221Y12305
X16277Y12698
X15489Y11399
X16395Y9569
X18599Y11261
X18895Y11754
X19367Y10828
X20056Y10750
X21070Y12511
X16552Y7738
X16867Y6202
X15997Y6092
X15568Y5100
X14210Y4135
X19347Y4372
X19977Y4372
X20233Y6183
X7989Y12383
X7241Y12383
X4052Y12383
X4820Y10257
X4288Y9450
X3225Y9057
X3225Y8368
X5647Y8781
X5666Y9352
X5076Y6596
T02
X13517Y6946
X15517Y8946
X14517Y9946
X16517Y6946
T03
X22491Y6196
X22491Y10696
X3251Y10696
X3251Y6196
T04
X6375Y1360
X19367Y1360
X19367Y15533
X6375Y15533
M30
