%
M48
M72
T01C0.0197
T02C0.0480
T03C0.1280
T04C0.1535
%
T01
X4879Y4549
X5391Y6380
X5036Y6754
X4564Y7521
X5666Y8348
X5666Y8860
X5666Y9352
X4269Y9411
X4485Y10356
X4052Y12383
X7241Y12383
X7989Y12383
X11257Y12462
X12005Y12738
X12960Y12511
X12714Y12029
X13816Y12561
X14013Y11891
X13147Y11281
X15371Y10769
X15745Y10376
X16395Y9569
X18599Y11261
X18895Y11754
X19367Y10828
X20056Y10750
X21070Y12511
X17320Y13407
X17379Y13939
X16513Y13880
X17182Y12856
X17221Y12305
X16277Y12698
X15489Y11635
X11985Y9746
X11631Y9214
X12340Y8289
X11985Y7876
X12399Y7462
X12910Y7285
X11966Y6498
X11198Y6576
X10036Y6537
X8934Y6694
X10056Y7698
X9623Y8072
X8147Y4549
X7595Y4549
X7832Y3801
X7950Y3092
X9446Y3368
X9525Y1694
X8993Y1694
X8481Y1694
X12910Y2128
X13442Y2128
X14032Y2128
X14210Y4135
X15568Y5100
X15997Y6092
X16867Y6202
X16552Y7738
X20233Y6183
X20430Y6675
X20430Y7226
X20627Y4372
X19977Y4372
X19347Y4372
X11906Y13663
X12044Y14352
X13678Y15257
T02
X14517Y9946
X15517Y8946
X16517Y6946
X13517Y6946
T03
X22491Y6196
X22491Y10696
X3251Y10696
X3251Y6196
T04
X6375Y1360
X19367Y1360
X19367Y15533
X6375Y15533
M30
